<svg width="277" height="271" viewBox="0 0 277 271" fill="none" xmlns="http://www.w3.org/2000/svg">
<path d="M122.877 260.387C122.677 260.387 122.478 260.287 122.378 260.187L112.191 249.9C111.891 249.601 111.891 249.101 112.191 248.802C112.491 248.502 112.99 248.502 113.29 248.802L123.576 259.088C123.876 259.388 123.876 259.887 123.576 260.187C123.277 260.287 123.077 260.387 122.877 260.387Z" fill="#1A1A33"/>
<path d="M112.69 260.387C112.491 260.387 112.291 260.287 112.191 260.187C111.891 259.887 111.891 259.388 112.191 259.088L122.478 248.802C122.777 248.502 123.277 248.502 123.576 248.802C123.876 249.101 123.876 249.601 123.576 249.9L113.19 260.187C113.09 260.287 112.89 260.387 112.69 260.387Z" fill="#1A1A33"/>
<path d="M122.88 238.217C122.78 238.217 122.58 238.217 122.48 238.117C122.181 237.917 122.081 237.418 122.281 237.118L127.674 228.829C127.873 228.529 128.373 228.429 128.672 228.629C128.972 228.829 129.072 229.328 128.872 229.628L123.479 237.917C123.379 238.117 123.18 238.217 122.88 238.217Z" fill="#1A1A33"/>
<path d="M128.273 242.511C128.074 242.511 127.874 242.411 127.674 242.211C127.374 241.912 127.474 241.412 127.774 241.113L133.267 236.818C133.566 236.519 134.066 236.618 134.365 236.918C134.665 237.218 134.565 237.717 134.265 238.017L128.773 242.311C128.573 242.411 128.473 242.511 128.273 242.511Z" fill="#1A1A33"/>
<path d="M51.8707 111.181C51.671 111.181 51.3714 111.082 51.2715 110.882L47.2767 105.489C47.077 105.189 47.077 104.69 47.4765 104.49C47.7761 104.29 48.2754 104.29 48.4752 104.69L52.3701 110.083C52.5698 110.382 52.5699 110.882 52.1704 111.082C52.1704 111.181 51.9706 111.181 51.8707 111.181Z" fill="#1A1A33"/>
<path d="M51.87 91.705C51.5704 91.705 51.2708 91.5053 51.171 91.2057C51.0711 90.8062 51.2708 90.4067 51.6703 90.207L61.158 86.8113C61.5575 86.7115 61.957 86.9112 62.1567 87.3107C62.2566 87.7102 62.0568 88.1097 61.6573 88.3094L52.1697 91.705C51.9699 91.6051 51.87 91.705 51.87 91.705Z" fill="#1A1A33"/>
<path d="M139.357 122.166C131.068 124.762 113.391 134.05 108.398 131.953C105.302 130.555 104.702 127.059 103.504 123.064C98.7102 127.559 92.2187 130.155 85.5273 132.053C87.5248 144.836 105.901 157.42 105.901 157.42C105.901 157.42 147.547 119.569 139.357 122.166Z" fill="#FF005A"/>
<path d="M105.902 158.318L105.403 158.018C104.604 157.519 86.827 145.135 84.7297 132.152L84.6299 131.453L85.2291 131.253C93.2187 129.056 98.8115 126.26 102.906 122.465L103.805 121.666L104.105 122.864C104.304 123.363 104.404 123.963 104.604 124.462C105.503 127.658 106.202 130.254 108.599 131.253C111.795 132.651 121.382 128.557 129.172 125.361C132.867 123.763 136.463 122.265 139.059 121.466C140.058 121.166 140.657 121.266 140.957 121.865C141.456 122.664 142.155 123.963 124.179 141.34C115.49 149.729 106.501 157.918 106.402 158.018L105.902 158.318ZM86.4275 132.551C88.6247 143.537 103.006 154.423 105.902 156.42C121.382 142.439 137.661 126.559 139.559 122.864C137.062 123.663 133.566 125.161 129.871 126.659C120.983 130.354 111.894 134.149 108.199 132.551C105.203 131.253 104.304 128.057 103.306 124.762C103.306 124.662 103.206 124.462 103.206 124.362C99.0112 127.858 93.7181 130.454 86.4275 132.551Z" fill="#FF005A"/>
<path d="M41.683 192.874C41.4832 192.874 41.3834 192.874 41.1836 192.674C40.884 192.374 40.7841 191.975 41.0837 191.575L146.347 52.2561C146.547 51.9565 147.046 51.8566 147.446 52.1562C147.745 52.4559 147.845 52.8553 147.546 53.2548L42.2822 192.574C42.0824 192.774 41.8827 192.874 41.683 192.874Z" fill="#1A1A33"/>
<path d="M29.9995 108.486L25.5053 133.454L1.23682 123.866L11.2239 82.6199C16.4171 83.2191 19.0137 88.0129 20.6116 93.306C20.7115 93.6056 20.8114 93.9052 20.9112 94.3047C21.2108 95.2035 21.4106 96.1024 21.6103 97.1011C21.7102 97.4007 21.8101 97.8002 21.8101 98.0998C22.2096 99.8974 22.609 101.595 22.9086 103.093C24.8062 110.384 29.9995 108.486 29.9995 108.486Z" fill="white"/>
<path d="M26.1042 134.451L0.4375 124.364L10.7242 81.9194L11.4232 82.0193C17.6152 82.7184 20.112 88.7106 21.4103 93.2048C21.5101 93.5044 21.6101 93.9039 21.7099 94.2035C22.0095 95.2022 22.2092 96.101 22.409 96.9998C22.5088 97.2994 22.6087 97.6989 22.6087 97.9985C22.8085 98.6976 22.9083 99.3967 23.1081 100.096C23.3078 101.094 23.5076 101.993 23.7073 102.892C24.3066 105.289 25.2054 106.787 26.6035 107.486C28.2015 108.285 29.6996 107.786 29.6996 107.786L30.8979 107.286L26.1042 134.451ZM2.23521 123.366L25.0056 132.354L29.1003 109.384C28.3013 109.484 27.1029 109.384 25.9044 108.785C24.1068 107.886 22.9083 105.988 22.3091 103.192C22.1094 102.293 21.9097 101.394 21.7099 100.395C21.5102 99.6964 21.4103 98.9972 21.2106 98.2981C21.1107 97.9985 21.1107 97.599 21.0108 97.2994C20.8111 96.4006 20.6113 95.5018 20.3117 94.5031C20.2118 94.2035 20.112 93.9038 20.0121 93.6042C18.1146 87.5121 15.5179 84.3163 11.9226 83.6172L2.23521 123.366Z" fill="#1A1A33"/>
<path d="M109.594 146.434C79.8329 136.647 26.2025 104.888 26.2025 104.888C26.2025 104.888 17.7136 136.747 15.2168 144.736C15.2168 144.736 47.6747 158.219 60.6578 165.709C60.6578 165.709 121.079 161.714 119.881 153.724C118.682 145.735 109.594 146.434 109.594 146.434Z" fill="#1A1A33"/>
<path d="M21.9117 97.9975L17.5174 100.195C16.9182 100.494 16.4188 99.5954 17.0181 99.2958L21.6121 96.9988C21.8118 97.3983 21.9117 97.6979 21.9117 97.9975Z" fill="#1A1A33"/>
<path d="M21.0089 94.3014L16.4149 96.5984C15.8156 96.8981 15.3163 95.9993 15.9155 95.6996L20.7093 93.3027C20.8092 93.6023 20.9091 93.902 21.0089 94.3014Z" fill="#1A1A33"/>
<path d="M131.767 191.375L82.8306 195.07L110.095 150.229L146.947 174.397L131.767 191.375Z" fill="#1A1A33"/>
<path d="M100.905 105.383C97.1096 105.383 99.806 112.773 99.806 112.773C99.806 112.773 99.5064 112.873 99.0071 113.073C97.9085 110.676 95.8112 107.58 92.915 107.48C90.9176 107.48 90.618 110.276 90.618 110.276C90.618 110.276 88.7205 110.776 88.1212 111.375C86.6232 112.873 86.4234 115.27 86.4234 115.27C83.6271 116.269 82.9279 121.162 85.5246 131.349C85.7243 132.248 86.1238 133.147 86.4234 134.145C92.8151 132.148 98.8073 129.452 104.3 125.756C104.001 124.758 103.701 123.759 103.401 122.66C108.195 115.27 103.601 105.383 100.905 105.383Z" fill="white"/>
<path d="M85.9239 135.145L85.6243 134.546C85.2248 133.547 84.9252 132.648 84.6256 131.649C82.1288 121.962 82.4284 116.469 85.5244 114.871C85.6242 114.072 86.1236 112.275 87.322 110.976C87.8214 110.477 89.0198 110.077 89.7189 109.878C90.0185 108.579 90.8175 106.882 92.715 106.882C95.1119 106.882 96.9096 108.579 98.2079 110.577C97.9083 108.979 97.7086 106.882 98.6074 105.683C98.907 105.184 99.6061 104.584 100.805 104.584C102.003 104.584 103.201 105.683 104.3 107.68C106.497 111.675 107.196 117.867 104.1 122.861C104.3 123.36 104.4 123.959 104.6 124.459C104.699 124.858 104.799 125.258 104.899 125.657L105.099 126.156L104.6 126.456C99.1068 130.051 93.0146 132.948 86.5231 134.945L85.9239 135.145ZM92.8149 108.38C91.5166 108.38 91.217 110.477 91.217 110.577L91.1171 111.076L90.6178 111.176C89.8188 111.376 88.7202 111.775 88.5205 112.075C87.2222 113.373 87.0224 115.47 87.0224 115.47V115.97L86.5231 116.169C83.9264 117.068 83.8266 122.461 86.1236 131.35C86.3234 131.949 86.5231 132.648 86.7228 133.347C92.715 131.45 98.3077 128.853 103.301 125.557C103.201 125.358 103.201 125.158 103.102 124.958C102.902 124.359 102.702 123.66 102.502 123.06L102.402 122.761L102.602 122.461C105.598 117.967 104.799 112.075 102.902 108.579C102.003 106.881 101.104 106.282 100.705 106.282C100.105 106.282 99.9057 106.482 99.8058 106.682C99.0068 107.78 99.7059 110.976 100.305 112.674L100.605 113.373L99.9057 113.673C99.9057 113.673 99.6061 113.773 99.2066 113.972L98.5075 114.272L98.2079 113.573C97.2092 111.176 95.3116 108.38 92.8149 108.38Z" fill="#1A1A33"/>
<path d="M89.7222 116.371C89.2229 115.972 88.5238 116.671 89.0231 117.07C90.621 118.568 92.219 120.366 92.9181 122.463C93.2177 123.362 93.8169 125.06 92.0192 125.36C91.2203 125.459 90.4213 124.561 89.922 123.961C89.3227 123.162 88.8234 122.363 88.1243 121.764C87.625 121.365 86.9259 122.064 87.4252 122.463C88.6236 123.662 89.3227 125.459 91.0205 126.159C92.219 126.658 93.5173 126.358 94.0166 125.16C95.4148 122.264 91.6197 118.169 89.7222 116.371Z" fill="#1A1A33"/>
<path d="M98.1101 113.175C97.7106 112.675 97.0115 113.374 97.411 113.874C99.1088 115.771 98.7093 118.568 96.6121 119.966C96.2126 117.369 93.8157 114.573 92.4175 112.975C92.018 112.475 91.3189 113.175 91.7184 113.674C93.3163 115.472 97.7106 120.465 94.5148 122.662C94.0154 123.062 94.5148 123.861 95.0141 123.561C96.1127 122.862 96.5122 121.963 96.6121 120.964C96.7119 121.064 96.9116 121.064 97.0115 120.964C99.8079 119.067 100.307 115.571 98.1101 113.175Z" fill="#1A1A33"/>
<path d="M84.9286 135.649C84.7288 135.649 84.629 135.649 84.4292 135.45C84.1296 135.25 84.0297 134.751 84.3293 134.351L90.8209 125.762C91.0206 125.463 91.52 125.363 91.9195 125.662C92.2191 125.862 92.319 126.361 92.0194 126.761L85.5278 135.35C85.328 135.55 85.1283 135.649 84.9286 135.649Z" fill="#1A1A33"/>
<path d="M131.267 191.577L82.3301 195.273L109.595 150.331L146.447 174.6L131.267 191.577Z" fill="#1A1A33"/>
<path d="M133.662 200.066H48.5728C47.2745 200.066 45.9762 199.367 45.2771 198.268L33.9918 180.191C32.3938 177.595 34.1915 174.299 37.2875 174.299H122.377C123.675 174.299 124.974 174.998 125.673 176.097L136.958 194.173C138.456 196.77 136.658 200.066 133.662 200.066Z" fill="white"/>
<path d="M133.663 200.863H48.573C46.9751 200.863 45.5769 200.064 44.6781 198.666L33.3927 180.59C32.4939 179.191 32.4939 177.394 33.2929 175.995C34.0918 174.497 35.5899 173.599 37.2877 173.599H122.377C123.975 173.599 125.373 174.398 126.272 175.796L137.558 193.872C138.456 195.27 138.456 197.068 137.657 198.466C136.759 199.964 135.36 200.863 133.663 200.863ZM37.2877 175.097C36.1891 175.097 35.1904 175.696 34.5912 176.695C33.9919 177.693 34.0919 178.892 34.6911 179.791L45.9764 197.867C46.5756 198.766 47.4744 199.365 48.573 199.365H133.663C134.761 199.365 135.76 198.766 136.359 197.767C136.958 196.769 136.858 195.57 136.259 194.671L124.974 176.595C124.375 175.696 123.476 175.097 122.377 175.097H37.2877Z" fill="#1A1A33"/>
<path d="M127.171 192.675H83.9274C83.5279 192.675 83.1284 192.375 83.1284 191.876C83.1284 191.377 83.428 191.077 83.9274 191.077H127.171C127.571 191.077 127.97 191.377 127.97 191.876C127.97 192.375 127.571 192.675 127.171 192.675Z" fill="#1A1A33"/>
<path d="M123.576 183.486H94.3141C93.9146 183.486 93.5151 183.186 93.5151 182.687C93.5151 182.188 93.8147 181.888 94.3141 181.888H123.576C123.976 181.888 124.375 182.188 124.375 182.687C124.375 183.186 123.976 183.486 123.576 183.486Z" fill="#1A1A33"/>
<path d="M61.8573 240.313L82.93 234.021L89.7212 257.191L49.1738 269.575C47.0766 264.782 49.8729 260.187 53.5681 256.093C53.7678 255.893 54.0675 255.593 54.2672 255.394C54.9663 254.695 55.5655 253.996 56.2646 253.396C56.4643 253.197 56.764 252.897 56.9637 252.697C58.262 251.499 59.5604 250.3 60.6589 249.202C66.1518 243.809 61.8573 240.313 61.8573 240.313Z" fill="white"/>
<path d="M48.7748 270.473L48.4752 269.874C45.9785 264.181 49.8734 258.988 52.9694 255.592C53.1691 255.293 53.4688 255.093 53.6685 254.793C54.3676 254.094 55.0667 253.395 55.7657 252.796C55.9655 252.596 56.2651 252.296 56.5647 252.097C57.0641 251.597 57.6633 251.098 58.1627 250.599C58.8618 249.9 59.5608 249.3 60.2599 248.601C61.9577 246.903 62.8565 245.306 62.7567 243.807C62.6568 242.01 61.4583 241.011 61.3585 240.911L60.2599 240.012L83.3299 233.121L90.6205 257.789L48.7748 270.473ZM63.1562 240.712C63.6555 241.411 64.1549 242.409 64.1549 243.708C64.2548 245.705 63.2561 247.702 61.1588 249.7C60.4597 250.299 59.7606 250.998 59.0615 251.697C58.5621 252.197 57.9629 252.696 57.4636 253.195C57.1639 253.395 56.9642 253.695 56.7645 253.894C56.0654 254.494 55.4661 255.193 54.767 255.892C54.5673 256.092 54.2677 256.391 54.0679 256.591C49.7735 261.285 48.2755 265.18 49.5738 268.675L88.723 256.691L82.3312 234.919L63.1562 240.712Z" fill="#1A1A33"/>
<path d="M56.9657 252.594L61.0604 255.191C61.5597 255.591 61.1602 256.39 60.561 256.09L56.2666 253.294C56.4663 252.994 56.766 252.794 56.9657 252.594Z" fill="#1A1A33"/>
<path d="M54.2665 255.294L58.5609 258.09C59.0603 258.39 58.6608 259.289 58.0615 258.989L53.5674 256.093C53.7671 255.793 53.9669 255.593 54.2665 255.294Z" fill="#1A1A33"/>
<path d="M110.894 154.523C106.1 152.626 100.907 151.627 95.9132 150.229C65.6524 151.527 38.4877 155.921 39.6862 183.086C41.1842 215.344 54.5668 249.1 54.5668 249.1L90.1207 239.812C90.1207 239.812 80.7328 198.965 78.5357 188.978L104.103 171.901L110.894 154.523Z" fill="#1A1A33"/>
<path d="M77.7397 188.68C77.4401 188.68 77.1405 188.48 77.0406 188.081L75.5425 181.889C75.4427 181.489 75.6424 181.09 76.0419 180.99C76.4414 180.89 76.8409 181.09 76.9407 181.489L78.4388 187.681C78.5387 188.081 78.3389 188.48 77.9395 188.58C77.8396 188.68 77.7397 188.68 77.7397 188.68Z" fill="white"/>
<path d="M104.902 159.516C104.802 159.516 104.703 159.516 104.703 159.516C83.53 152.725 63.8556 155.022 52.5702 159.516C52.1707 159.716 51.7713 159.516 51.5715 159.116C51.3718 158.717 51.5715 158.317 51.971 158.118C63.4561 153.524 83.5301 151.127 105.102 158.118C105.502 158.218 105.701 158.617 105.601 159.016C105.502 159.316 105.202 159.516 104.902 159.516Z" fill="white"/>
<path d="M147.943 258.092V1.32544H270.784V216.346L253.506 227.332L270.784 238.318V258.092H147.943Z" fill="white"/>
<path d="M269.986 2.02491V215.947L252.109 227.332L269.986 238.718V257.293H148.643V2.02491H269.986ZM271.484 0.526855H269.986H148.643H147.145V2.02491V257.293V258.792H148.643H269.986H271.484V257.293V238.718V237.919L270.785 237.519L254.905 227.432L270.785 217.345L271.484 216.946V216.147V2.02491V0.526855Z" fill="#1A1A33"/>
<path d="M258.002 2.02368H189.491V78.4245H258.002V2.02368Z" fill="#FF005A"/>
<path d="M258.002 91.7108H251.011C250.612 91.7108 250.212 91.4112 250.212 90.9118C250.212 90.4125 250.512 90.1128 251.011 90.1128H258.002C258.402 90.1128 258.801 90.4125 258.801 90.9118C258.801 91.4112 258.402 91.7108 258.002 91.7108Z" fill="#1A1A33"/>
<path d="M244.52 91.7108H213.061C212.661 91.7108 212.262 91.4112 212.262 90.9118C212.262 90.4125 212.561 90.1128 213.061 90.1128H244.52C244.919 90.1128 245.319 90.4125 245.319 90.9118C245.319 91.4112 244.919 91.7108 244.52 91.7108Z" fill="#1A1A33"/>
<path d="M258.002 101.997H213.061C212.661 101.997 212.262 101.697 212.262 101.198C212.262 100.699 212.561 100.399 213.061 100.399H258.002C258.402 100.399 258.801 100.699 258.801 101.198C258.801 101.697 258.402 101.997 258.002 101.997Z" fill="#1A1A33"/>
<path d="M258.002 112.283H230.538C230.138 112.283 229.739 111.984 229.739 111.484C229.739 110.985 230.038 110.686 230.538 110.686H258.002C258.402 110.686 258.801 110.985 258.801 111.484C258.801 111.984 258.402 112.283 258.002 112.283Z" fill="#1A1A33"/>
<path d="M219.553 112.283H213.062C212.662 112.283 212.263 111.984 212.263 111.484C212.263 110.985 212.562 110.686 213.062 110.686H219.553C219.953 110.686 220.352 110.985 220.352 111.484C220.352 111.984 219.953 112.283 219.553 112.283Z" fill="#1A1A33"/>
<path d="M258.003 122.568H213.062C212.662 122.568 212.263 122.269 212.263 121.769C212.263 121.27 212.562 120.97 213.062 120.97H258.003C258.403 120.97 258.802 121.27 258.802 121.769C258.802 122.269 258.403 122.568 258.003 122.568Z" fill="#1A1A33"/>
<path d="M258.003 132.955H250.512C250.113 132.955 249.713 132.655 249.713 132.156C249.713 131.657 250.013 131.357 250.512 131.357H258.003C258.402 131.357 258.802 131.657 258.802 132.156C258.802 132.655 258.402 132.955 258.003 132.955Z" fill="#1A1A33"/>
<path d="M238.529 132.955H213.062C212.662 132.955 212.263 132.655 212.263 132.156C212.263 131.657 212.562 131.357 213.062 131.357H238.529C238.928 131.357 239.328 131.657 239.328 132.156C239.328 132.655 238.928 132.955 238.529 132.955Z" fill="#1A1A33"/>
<path d="M209.365 181.89L235.531 165.811L236.031 195.273L209.365 181.89Z" fill="#FF005A"/>
<path d="M237.728 221.64C237.529 221.64 237.329 221.54 237.229 221.44C236.929 221.141 236.929 220.641 237.229 220.342L246.817 210.754C247.116 210.455 247.616 210.455 247.915 210.754C248.215 211.054 248.215 211.553 247.915 211.853L238.328 221.44C238.128 221.54 237.928 221.64 237.728 221.64Z" fill="#1A1A33"/>
<path d="M247.416 221.64C247.216 221.64 247.016 221.54 246.916 221.44L237.329 211.853C237.029 211.553 237.029 211.054 237.329 210.754C237.628 210.455 238.128 210.455 238.427 210.754L248.015 220.342C248.314 220.641 248.314 221.141 248.015 221.44C247.715 221.54 247.615 221.64 247.416 221.64Z" fill="#1A1A33"/>
<path d="M276.977 100.096H272.982V148.433H276.977V100.096Z" fill="#FF005A"/>
<path d="M136.158 19.7014C138.143 19.7014 139.753 18.0917 139.753 16.1061C139.753 14.1204 138.143 12.5107 136.158 12.5107C134.172 12.5107 132.562 14.1204 132.562 16.1061C132.562 18.0917 134.172 19.7014 136.158 19.7014Z" fill="#FF005A"/>
<path d="M136.157 30.7863C137.702 30.7863 138.954 29.5344 138.954 27.99C138.954 26.4456 137.702 25.1936 136.157 25.1936C134.613 25.1936 133.361 26.4456 133.361 27.99C133.361 29.5344 134.613 30.7863 136.157 30.7863Z" fill="white"/>
<path d="M136.159 25.9934C137.257 25.9934 138.256 26.8923 138.256 28.0907C138.256 29.2891 137.357 30.188 136.159 30.188C134.96 30.188 134.062 29.2891 134.062 28.0907C134.062 26.8923 135.06 25.9934 136.159 25.9934ZM136.159 24.4954C134.161 24.4954 132.563 26.0933 132.563 28.0907C132.563 30.0881 134.161 31.686 136.159 31.686C138.156 31.686 139.754 30.0881 139.754 28.0907C139.754 26.0933 138.156 24.4954 136.159 24.4954Z" fill="#1A1A33"/>
<path d="M202.973 208.657H158.031C157.632 208.657 157.232 208.357 157.232 207.858C157.232 207.358 157.532 207.059 158.031 207.059H202.973C203.373 207.059 203.772 207.358 203.772 207.858C203.772 208.357 203.472 208.657 202.973 208.657Z" fill="#1A1A33"/>
<path d="M202.974 219.043H195.184C194.784 219.043 194.385 218.744 194.385 218.244C194.385 217.745 194.684 217.445 195.184 217.445H202.974C203.373 217.445 203.773 217.745 203.773 218.244C203.773 218.744 203.473 219.043 202.974 219.043Z" fill="#1A1A33"/>
<path d="M188.891 219.044H158.031C157.632 219.044 157.232 218.744 157.232 218.245C157.232 217.745 157.532 217.446 158.031 217.446H188.891C189.291 217.446 189.69 217.745 189.69 218.245C189.69 218.744 189.291 219.044 188.891 219.044Z" fill="#1A1A33"/>
<path d="M165.022 127.759C163.924 126.76 162.626 125.862 161.127 124.963C149.543 118.371 134.462 120.269 127.471 131.055C119.182 143.838 101.505 142.84 101.505 142.84C101.505 142.84 130.667 173.999 139.056 186.083C139.056 186.083 147.645 178.094 155.435 169.405C153.937 174.998 152.139 181.489 150.841 186.083C150.641 186.782 150.441 187.482 150.242 188.081C162.026 196.37 177.307 193.773 184.997 181.789C198.679 160.217 174.31 135.549 165.022 127.759ZM158.431 165.91C161.227 162.614 163.724 159.318 165.522 156.422C167.12 157.82 168.318 159.218 168.618 160.716C170.316 167.707 163.424 168.306 158.431 165.91Z" fill="#FF005A"/>
<path d="M164.924 193.674C159.63 193.674 154.437 191.977 149.743 188.681L149.344 188.381L149.544 187.882C149.743 187.283 149.943 186.584 150.143 185.885C151.241 182.189 152.54 177.396 153.838 172.602L153.938 172.102C146.847 179.892 139.656 186.484 139.557 186.584L138.957 187.183L138.458 186.484C130.169 174.599 101.206 143.639 100.907 143.24L99.6084 141.842L101.506 141.942C101.706 141.942 118.883 142.741 126.773 130.556C133.664 119.87 148.944 117.074 161.428 124.165C162.926 125.064 164.324 125.962 165.423 127.061C171.415 132.154 200.477 158.52 185.497 182.089C181.802 187.882 176.109 191.877 169.617 193.075C168.119 193.475 166.521 193.674 164.924 193.674ZM151.042 187.782C156.634 191.577 163.126 192.975 169.318 191.677C175.41 190.479 180.703 186.783 184.199 181.291C198.48 158.82 170.217 133.153 164.424 128.259C163.326 127.261 162.127 126.362 160.629 125.563C148.745 118.872 134.363 121.368 127.972 131.455C121.08 142.141 107.898 143.44 103.104 143.539C108.597 149.432 131.167 173.9 139.057 184.886C141.154 182.888 148.245 176.097 154.737 168.807L156.834 166.41L155.036 173.001C153.738 177.695 152.44 182.589 151.341 186.284C151.341 186.783 151.241 187.283 151.042 187.782ZM163.725 167.908C161.828 167.908 159.73 167.409 158.132 166.61L157.234 166.21L157.833 165.511C160.929 161.916 163.226 158.72 164.824 156.123L165.323 155.324L166.022 155.923C167.32 157.122 168.918 158.72 169.418 160.617C170.217 164.013 169.118 165.811 168.02 166.709C166.821 167.508 165.323 167.908 163.725 167.908ZM159.63 165.611C162.527 166.709 165.523 166.61 167.021 165.411C168.119 164.512 168.419 162.914 167.92 160.817C167.72 159.818 167.021 158.82 165.623 157.521C164.125 159.918 162.127 162.615 159.63 165.611Z" fill="#FF005A"/>
<path d="M171.914 105.792C174.211 107.889 176.808 110.785 180.104 111.085C183.1 111.385 185.397 109.387 187.993 108.189C192.188 106.191 196.982 105.792 201.376 107.29C210.964 110.386 214.159 120.972 206.669 128.263C199.978 134.654 189.691 136.252 181.003 133.756C172.613 131.259 163.126 123.469 165.323 113.682C165.523 112.883 165.922 112.184 166.421 111.584C163.825 107.889 168.419 102.396 171.914 105.792Z" fill="#1A1A33"/>
<path d="M177.508 116.179C176.909 115.879 176.31 115.68 175.611 115.48V115.38C177.209 107.59 172.814 99.9999 165.724 98.6017C158.633 97.2035 151.742 102.397 150.144 110.187C148.546 117.977 149.944 125.766 160.031 126.965C163.327 127.364 166.722 126.466 169.519 124.568C172.515 126.765 176.41 126.166 178.807 124.368C181.503 122.271 181.304 118.176 177.508 116.179Z" fill="white"/>
<path d="M161.53 127.763C161.03 127.763 160.431 127.763 159.932 127.663C155.937 127.164 152.941 125.666 151.043 123.169C148.846 120.073 148.247 115.679 149.445 110.086C150.244 106.091 152.441 102.695 155.537 100.398C158.633 98.1014 162.328 97.2026 165.924 97.9017C169.519 98.6008 172.615 100.898 174.613 104.194C176.51 107.389 177.109 111.184 176.51 114.88C177.009 115.079 177.509 115.279 177.908 115.479C180.006 116.577 181.304 118.375 181.404 120.373C181.504 122.17 180.805 123.868 179.306 124.967C176.91 126.764 172.915 127.663 169.519 125.466C167.022 126.964 164.226 127.763 161.53 127.763ZM163.327 99.1001C160.83 99.1001 158.434 99.8991 156.236 101.497C153.44 103.594 151.542 106.69 150.744 110.286C149.645 115.479 150.144 119.474 152.142 122.27C153.74 124.467 156.336 125.766 159.932 126.165C163.028 126.564 166.223 125.766 168.92 123.868L169.319 123.568L169.719 123.868C172.515 125.965 176.011 125.266 178.108 123.668C179.207 122.869 179.706 121.671 179.606 120.373C179.506 118.874 178.507 117.576 176.91 116.677C176.41 116.378 175.811 116.178 175.112 115.978L174.413 115.778L174.513 114.979C175.212 111.384 174.712 107.689 172.915 104.693C171.117 101.697 168.421 99.6993 165.225 99.1001C164.825 99.1001 164.126 99.1001 163.327 99.1001Z" fill="#1A1A33"/>
<path d="M155.837 100.898C149.545 95.8049 159.233 91.2108 165.624 98.6012C172.615 99.9994 177.109 107.49 175.511 115.38C175.511 115.479 175.412 115.679 175.412 115.779C174.413 115.379 170.418 114.181 168.021 109.887C163.327 107.39 157.934 101.298 155.837 100.898Z" fill="#1A1A33"/>
<path d="M160.307 113.262C160.848 113.155 161.199 112.629 161.091 112.088C160.983 111.547 160.457 111.196 159.916 111.304C159.376 111.411 159.024 111.937 159.132 112.478C159.24 113.019 159.766 113.37 160.307 113.262Z" fill="#1A1A33"/>
<path d="M152.24 114.978C152.939 112.881 154.038 110.883 155.336 109.085C155.736 108.586 156.535 109.086 156.135 109.685C154.837 111.482 153.938 113.38 153.239 115.377C152.939 115.877 152.04 115.577 152.24 114.978Z" fill="#1A1A33"/>
<path d="M171.215 119.672C173.113 118.274 175.709 118.174 177.507 119.672C178.006 120.072 177.407 120.871 176.908 120.471C175.41 119.273 173.312 119.173 171.814 120.371C171.315 120.771 170.716 120.072 171.215 119.672Z" fill="#1A1A33"/>
<path d="M241.925 53.5559H126.075C125.676 53.5559 125.276 53.2563 125.276 52.757C125.276 52.2576 125.576 51.958 126.075 51.958H241.825C242.225 51.958 242.624 52.2576 242.624 52.757C242.624 53.2563 242.324 53.5559 241.925 53.5559Z" fill="#1A1A33"/>
<path d="M130.768 185.582C130.569 185.582 130.469 185.582 130.269 185.383C129.969 185.083 129.87 184.683 130.169 184.284L229.94 52.2554C230.139 51.9558 230.639 51.8559 231.038 52.1555C231.338 52.4551 231.438 52.8546 231.138 53.2541L131.368 185.283C131.268 185.482 131.068 185.582 130.768 185.582Z" fill="#1A1A33"/>
<path d="M155.035 168.406C153.937 163.712 151.739 159.018 146.446 160.716C146.346 160.716 146.246 160.816 146.246 160.816C146.047 160.616 145.747 160.516 145.547 160.416C141.852 158.319 140.953 161.715 141.053 162.713C138.557 163.213 136.859 165.909 137.358 167.907C132.365 172.001 136.359 177.694 139.955 179.192C140.554 179.392 141.053 179.292 141.553 178.892C141.752 179.292 141.852 179.591 141.952 180.091C142.551 183.686 148.044 185.584 150.841 186.083C152.239 181.289 154.036 174.498 155.634 168.805C155.435 168.706 155.235 168.606 155.035 168.406Z" fill="white"/>
<path d="M151.341 186.883L150.642 186.783C147.646 186.283 141.853 184.286 141.154 180.191C141.154 180.091 141.154 179.992 141.054 179.892C140.455 180.091 139.956 179.992 139.556 179.792C137.259 178.793 134.662 176.197 134.163 173.101C133.963 171.603 134.163 169.505 136.46 167.508C136.36 166.509 136.66 165.411 137.259 164.412C137.958 163.313 139.057 162.414 140.255 162.015C140.355 161.116 140.755 160.018 141.753 159.318C142.552 158.819 143.851 158.42 145.848 159.618C145.948 159.718 146.148 159.818 146.247 159.918C148.145 159.318 149.743 159.518 151.141 160.317C153.139 161.516 154.637 164.012 155.635 168.007C155.735 168.107 155.835 168.107 155.935 168.207L156.434 168.506L155.236 173.001C153.937 177.794 152.639 182.688 151.541 186.383L151.341 186.883ZM141.853 177.695L142.253 178.593C142.452 178.993 142.552 179.492 142.652 179.892C143.151 182.688 147.246 184.486 150.242 185.185C151.241 181.59 152.539 176.995 153.738 172.501L154.637 169.106C154.637 169.106 154.537 169.106 154.537 169.006L154.337 168.806L154.237 168.506C153.338 164.711 152.14 162.514 150.442 161.516C149.343 160.916 148.145 160.817 146.547 161.316L145.948 161.516L145.648 161.316C145.448 161.116 145.249 161.016 145.049 160.916C143.95 160.317 143.151 160.217 142.552 160.617C141.853 161.116 141.653 162.215 141.653 162.514L141.753 163.213L141.154 163.413C140.155 163.613 139.157 164.312 138.557 165.311C138.058 166.11 137.858 167.008 138.058 167.708L138.158 168.207L137.758 168.506C136.161 169.805 135.461 171.303 135.761 173.001C136.061 175.497 138.358 177.695 140.255 178.494C140.355 178.494 140.655 178.693 141.154 178.294L141.853 177.695Z" fill="#1A1A33"/>
<path d="M151.942 166.111C150.843 163.714 148.946 161.916 146.549 160.818C145.949 160.518 145.45 161.417 146.049 161.716C148.246 162.715 150.044 164.413 151.143 166.61C151.342 167.209 152.241 166.71 151.942 166.111Z" fill="#1A1A33"/>
<path d="M144.85 164.709C144.251 163.91 143.452 163.31 142.353 163.111C141.754 163.011 141.454 163.91 142.054 164.109C142.753 164.209 143.452 164.609 143.951 165.208C144.351 165.707 145.25 165.208 144.85 164.709Z" fill="#1A1A33"/>
<path d="M141.654 170.305C140.954 169.207 139.856 168.308 138.657 167.909C138.058 167.709 137.759 168.608 138.358 168.907C139.357 169.307 140.255 170.006 140.855 170.905C141.154 171.404 142.053 170.905 141.654 170.305Z" fill="#1A1A33"/>
<path d="M141.954 177.896C140.756 176.299 139.058 175.2 137.36 174.201C136.861 173.902 136.262 174.701 136.861 175.1C138.459 176.099 140.057 177.097 141.255 178.596C141.655 179.095 142.354 178.396 141.954 177.896Z" fill="#1A1A33"/>
<path d="M109.296 142.541C108.697 142.541 107.998 142.541 107.398 142.441C106.999 142.441 106.699 142.041 106.699 141.642C106.699 141.242 107.099 140.943 107.498 140.943C118.184 142.141 126.474 131.755 130.868 126.062C131.167 125.762 131.567 125.663 131.966 125.962C132.266 126.262 132.366 126.661 132.066 127.061C127.772 132.554 119.882 142.541 109.296 142.541Z" fill="#1A1A33"/>
<path d="M149.911 158.281L147.021 162.106L148.217 163.009L151.106 159.184L149.911 158.281Z" fill="#1A1A33"/>
<path d="M137.809 174.357L135.702 177.146L136.898 178.049L139.004 175.26L137.809 174.357Z" fill="#1A1A33"/>
<path d="M163.725 167.91C161.128 167.91 158.332 166.911 156.234 165.513C155.935 165.313 155.835 164.814 156.035 164.514C156.234 164.215 156.734 164.115 157.033 164.315C160.129 166.512 164.623 167.111 166.721 165.613C168.019 164.714 168.419 163.116 167.819 160.819C167.719 160.42 168.019 160.02 168.418 159.92C168.818 159.82 169.217 160.02 169.317 160.519C170.216 164.215 168.818 166.012 167.62 166.911C166.521 167.61 165.123 167.91 163.725 167.91Z" fill="#1A1A33"/>
<path d="M156.632 164.913C156.333 166.112 155.933 167.41 155.534 168.808L156.632 164.913Z" fill="white"/>
<path d="M156.334 169.008L154.936 168.608C155.335 167.21 155.635 165.912 156.034 164.713L157.432 165.113C157.033 166.311 156.633 167.61 156.334 169.008Z" fill="#1A1A33"/>
</svg>
