<svg width="246" height="227" viewBox="0 0 246 227" fill="none" xmlns="http://www.w3.org/2000/svg">
<path d="M28.9599 120.65V225.046C28.9599 227.651 32.9751 227.651 32.9751 225.046V120.65C32.9751 118.046 28.9599 118.046 28.9599 120.65Z" fill="#0E1B3C"/>
<path d="M184.789 131.502H25.6992C22.5521 131.502 19.9476 128.898 19.9476 125.751V91.7842C19.9476 88.6372 22.5521 86.0327 25.6992 86.0327H184.789C187.936 86.0327 190.541 88.6372 190.541 91.7842V125.751C190.541 128.898 187.936 131.502 184.789 131.502Z" fill="white"/>
<path d="M184.791 132.263H25.7007C22.011 132.263 19.081 129.333 19.081 125.643V91.7847C19.081 88.095 22.011 85.165 25.7007 85.165H184.791C188.48 85.165 191.41 88.095 191.41 91.7847V125.751C191.302 129.333 188.372 132.263 184.791 132.263ZM25.7007 86.7928C22.9877 86.7928 20.7088 89.0717 20.7088 91.7847V125.751C20.7088 128.464 22.9877 130.743 25.7007 130.743H184.791C187.504 130.743 189.783 128.464 189.783 125.751V91.7847C189.783 89.0717 187.504 86.7928 184.791 86.7928H25.7007Z" fill="#0E1B3C"/>
<path d="M184.789 163.624H25.6992C22.5521 163.624 19.9476 161.019 19.9476 157.872V148.648C19.9476 145.501 22.5521 142.896 25.6992 142.896H184.789C187.936 142.896 190.541 145.501 190.541 148.648V157.872C190.541 161.019 187.936 163.624 184.789 163.624Z" fill="white"/>
<path d="M184.791 164.383H25.7007C22.011 164.383 19.081 161.453 19.081 157.763V148.539C19.081 144.849 22.011 141.919 25.7007 141.919H184.791C188.48 141.919 191.41 144.849 191.41 148.539V157.763C191.302 161.453 188.372 164.383 184.791 164.383ZM25.7007 143.656C22.9877 143.656 20.7088 145.935 20.7088 148.648V157.872C20.7088 160.585 22.9877 162.864 25.7007 162.864H184.791C187.504 162.864 189.783 160.585 189.783 157.872V148.648C189.783 145.935 187.504 143.656 184.791 143.656H25.7007Z" fill="#0E1B3C"/>
<path d="M190.544 101.335H19.8429C19.4089 101.335 18.9748 101.009 18.9748 100.467C18.9748 99.9242 19.3003 99.5986 19.8429 99.5986H190.544C190.979 99.5986 191.413 99.9242 191.413 100.467C191.413 101.009 190.979 101.335 190.544 101.335Z" fill="#0E1B3C"/>
<path d="M190.544 116.635H19.8429C19.4089 116.635 18.9748 116.31 18.9748 115.767C18.9748 115.224 19.3003 114.899 19.8429 114.899H190.544C190.979 114.899 191.413 115.224 191.413 115.767C191.413 116.31 190.979 116.635 190.544 116.635Z" fill="#0E1B3C"/>
<path d="M190.544 150.71H19.8429C19.4089 150.71 18.9748 150.385 18.9748 149.842C18.9748 149.3 19.3003 148.974 19.8429 148.974H190.544C190.979 148.974 191.413 149.3 191.413 149.842C191.413 150.385 190.979 150.71 190.544 150.71Z" fill="#0E1B3C"/>
<path d="M190.544 157.331H19.8429C19.4089 157.331 18.9748 157.005 18.9748 156.462C18.9748 155.92 19.3003 155.594 19.8429 155.594H190.544C190.979 155.594 191.413 155.92 191.413 156.462C191.413 157.005 190.979 157.331 190.544 157.331Z" fill="#0E1B3C"/>
<path d="M182.429 226.132H133.921V208.226L162.896 196.94C162.896 196.94 163.981 203.886 166.586 209.637C166.694 209.963 166.911 210.288 167.02 210.505C167.454 211.482 167.996 212.459 168.539 213.327C168.756 213.652 168.973 213.869 169.082 214.195C170.167 215.606 171.469 216.691 172.88 217.234C176.678 218.536 178.957 220.272 180.368 221.791C180.693 222.117 180.91 222.443 181.127 222.768C182.43 224.613 182.429 226.132 182.429 226.132Z" fill="#0E1B3C"/>
<path d="M181.02 222.659H133.814V221.682H180.152C180.586 222.008 180.803 222.333 181.02 222.659Z" fill="white"/>
<path d="M166.911 210.504C164.849 211.481 162.679 212.566 160.617 213.543C160.074 213.76 159.532 213 160.074 212.675C162.245 211.698 164.306 210.613 166.477 209.636C166.477 209.636 166.477 209.636 166.585 209.636C166.585 209.962 166.694 210.179 166.911 210.504Z" fill="white"/>
<path d="M168.973 214.086C167.128 215.388 165.392 216.69 163.547 217.993C163.005 218.318 162.462 217.45 163.005 217.124C164.741 215.822 166.586 214.628 168.322 213.326C168.647 213.543 168.865 213.869 168.973 214.086Z" fill="white"/>
<path d="M224.641 174.152L180.691 194.77L179.172 191.623L178.738 190.755L170.816 173.826L194.473 156.029C194.473 156.029 198.38 161.78 203.155 166.013C203.372 166.23 203.697 166.447 203.914 166.664C204.782 167.315 205.651 167.966 206.519 168.509C206.844 168.726 207.061 168.834 207.387 168.943C209.015 169.811 210.534 170.245 212.053 170.136C216.068 169.702 218.781 170.245 220.735 171.113C221.169 171.33 221.494 171.439 221.929 171.656C223.99 172.849 224.641 174.152 224.641 174.152Z" fill="#0E1B3C"/>
<path d="M163.547 194.335C162.57 188.258 161.16 179.685 159.749 170.569C162.787 175.67 164.958 179.034 164.958 179.034L200.118 161.671C200.118 161.671 190.026 141.92 175.376 115.875C160.725 89.8307 128.821 99.923 98.1096 110.449L98.3266 111.535C86.8235 111.643 75.3204 112.077 63.9259 113.162C56.438 113.922 49.1672 115.333 41.8964 116.961C41.2452 139.641 42.656 155.811 58.7169 156.57C79.1186 157.547 120.248 156.57 120.248 156.57C120.248 156.57 119.379 184.568 124.371 201.497C124.48 201.823 124.588 202.149 124.697 202.474C125.782 205.838 127.084 208.66 128.712 210.722L165.175 203.017C165.175 203.017 164.741 200.087 163.981 195.203C163.764 194.986 163.656 194.661 163.547 194.335Z" fill="white"/>
<path d="M128.169 211.698L127.844 211.264C126.216 209.202 124.913 206.38 123.72 202.691C123.611 202.365 123.503 202.039 123.394 201.714C118.945 186.521 119.162 162.213 119.271 157.329C113.302 157.438 77.0563 158.197 58.4994 157.329C41.2448 156.461 40.3767 138.447 40.9193 116.851V116.2L41.5704 116.092C48.1901 114.681 56.0035 113.053 63.7084 112.294C73.4752 111.317 83.7845 110.883 97.241 110.666L97.1325 109.798L97.7836 109.581C127.192 99.4883 160.616 88.2022 176.026 115.441C190.568 141.16 200.66 161.019 200.769 161.236L201.094 161.996L164.523 180.118L164.089 179.467C164.089 179.467 162.895 177.514 161.051 174.584C162.244 182.072 163.329 189.126 164.198 194.226C164.198 194.443 164.306 194.552 164.306 194.769L165.717 203.776L128.169 211.698ZM121.007 155.702V156.57C121.007 156.895 120.139 184.676 125.022 201.28C125.131 201.605 125.239 201.931 125.348 202.256C126.324 205.512 127.518 208.008 128.929 209.853L164.198 202.473L163.004 194.986C163.004 194.769 162.895 194.66 162.895 194.443C161.919 188.366 160.508 179.793 159.097 170.677L158.446 166.553L160.616 170.135C162.895 173.933 164.632 176.754 165.391 177.948L199.141 161.236C197.188 157.438 187.746 139.206 174.724 116.2C160.074 90.3726 127.735 101.116 99.0858 110.883L99.3029 112.185H98.3262C84.5442 112.402 73.9092 112.836 64.0339 113.813C56.5461 114.572 49.1667 116.092 42.6555 117.394C42.0044 141.594 44.5004 154.833 58.7165 155.593C78.9012 156.57 119.813 155.593 120.247 155.593L121.007 155.702Z" fill="#0E1B3C"/>
<path d="M142.168 123.581H142.06L114.604 118.046C114.17 117.938 113.844 117.504 113.953 117.07C114.061 116.636 114.496 116.31 114.93 116.418L142.385 121.953C142.819 122.061 143.145 122.496 143.036 122.93C142.819 123.255 142.494 123.581 142.168 123.581Z" fill="#0E1B3C"/>
<path d="M221.931 171.656L179.283 191.624L178.849 190.756L220.846 171.114C221.172 171.222 221.606 171.439 221.931 171.656Z" fill="white"/>
<path d="M204.027 166.663C202.508 168.508 201.097 170.244 199.578 172.089C199.144 172.631 198.384 171.98 198.71 171.546C200.229 169.701 201.64 167.965 203.159 166.12C203.485 166.229 203.702 166.446 204.027 166.663Z" fill="white"/>
<path d="M206.847 168.617C205.87 170.244 205.002 171.981 204.025 173.609C203.7 174.151 204.568 174.802 204.893 174.26C205.87 172.523 206.847 170.787 207.823 169.159L206.847 168.617Z" fill="white"/>
<path d="M156.819 165.579C156.602 165.579 156.277 165.47 156.168 165.253C146.618 150.603 141.735 139.1 138.262 123.039C138.154 122.605 138.479 122.171 138.914 122.063C139.348 121.954 139.782 122.28 139.89 122.714C143.363 138.558 148.138 149.844 157.579 164.385C157.796 164.711 157.687 165.253 157.362 165.47C157.145 165.47 156.928 165.579 156.819 165.579Z" fill="#0E1B3C"/>
<path d="M163.438 171.655C163.112 171.655 162.895 171.438 162.678 171.221C162.461 170.787 162.678 170.353 163.004 170.136C173.422 164.927 183.84 159.392 193.932 153.532C194.366 153.315 194.8 153.424 195.017 153.858C195.234 154.292 195.126 154.726 194.692 154.943C184.599 160.803 174.073 166.338 163.655 171.547C163.655 171.547 163.547 171.655 163.438 171.655Z" fill="#0E1B3C"/>
<path d="M126.759 201.932C126.324 201.932 125.999 201.606 125.999 201.281C125.89 200.847 126.216 200.413 126.65 200.304L133.812 199.002C143.362 197.266 151.393 195.746 162.027 193.793C162.462 193.684 162.896 194.01 163.004 194.444C163.113 194.878 162.787 195.312 162.353 195.421C151.718 197.374 143.796 198.785 134.138 200.63L126.976 201.932C126.867 201.932 126.759 201.932 126.759 201.932Z" fill="#0E1B3C"/>
<path d="M239.922 142.463C237.1 142.463 234.062 141.161 231.349 139.968C229.721 139.316 228.202 138.557 226.899 138.231C222.559 137.037 217.892 138.123 214.311 141.161C213.986 141.487 213.443 141.378 213.117 141.053C212.792 140.727 212.9 140.185 213.226 139.859C217.241 136.495 222.45 135.301 227.333 136.603C228.853 137.037 230.372 137.689 232 138.448C236.449 140.402 241.115 142.463 244.48 138.882C244.805 138.557 245.348 138.557 245.673 138.882C245.999 139.208 245.999 139.75 245.673 140.076C243.828 141.812 241.875 142.463 239.922 142.463Z" fill="#D4F800"/>
<path d="M239.922 150.82C237.1 150.82 234.062 149.518 231.349 148.324C229.721 147.673 228.202 146.913 226.899 146.588C222.559 145.394 217.892 146.479 214.311 149.518C213.986 149.843 213.443 149.735 213.117 149.409C212.792 149.084 212.9 148.541 213.226 148.215C217.241 144.851 222.45 143.658 227.333 144.96C228.853 145.394 230.372 146.045 232 146.805C236.449 148.758 241.115 150.82 244.48 147.239C244.805 146.913 245.348 146.913 245.673 147.239C245.999 147.564 245.999 148.107 245.673 148.432C243.828 150.169 241.875 150.82 239.922 150.82Z" fill="#D4F800"/>
<path d="M162.463 86.034H96.3741C88.5606 70.8412 88.9947 59.9893 88.9947 59.9893C99.6297 64.33 123.504 78.2205 128.387 82.1272C128.387 82.1272 152.479 72.7946 161.486 84.4062C161.811 84.9488 162.246 85.4914 162.463 86.034Z" fill="#00D37F"/>
<path d="M162.463 86.0332C162.137 85.4906 161.812 84.948 161.378 84.4054C157.146 78.8709 150.2 77.6772 142.604 78.7624C136.201 79.8476 133.705 84.6225 137.829 92.2189C141.627 99.0556 144.991 94.7148 142.712 90.157L144.123 87.8781C144.34 88.0951 144.557 88.3121 144.666 88.6377C146.402 91.6762 146.511 94.3893 148.03 96.017C149.983 97.9704 152.696 96.017 152.805 94.9319C152.805 94.9319 155.626 98.6215 158.231 94.9319C158.231 94.9319 160.51 97.2107 162.68 94.2807C164.85 91.3507 162.463 86.0332 162.463 86.0332Z" fill="white"/>
<path d="M149.982 97.7531C149.006 97.7531 148.137 97.4275 147.486 96.6679C146.51 95.6912 146.075 94.2804 145.533 92.8697C145.207 91.7845 144.773 90.5908 144.122 89.397L143.58 90.2652C144.665 92.8697 144.339 95.5827 142.603 96.4508C141.952 96.7764 139.673 97.5361 137.068 92.7612C134.789 88.6374 134.355 85.0563 135.658 82.4518C136.743 80.1729 139.13 78.6536 142.386 78.111L142.711 78.0025C151.502 76.8088 158.013 78.8706 161.919 83.9711C162.245 84.4051 162.571 84.8392 162.788 85.2733L162.896 85.5989V85.7074L163.547 86.9011H163.33C163.981 88.7459 164.849 92.4356 163.113 94.823C162.245 95.9082 161.268 96.5594 160.183 96.6679C159.315 96.7764 158.555 96.4508 158.121 96.1253C157.253 96.9934 156.385 97.4275 155.408 97.4275C154.323 97.4275 153.346 96.8849 152.804 96.3423C152.37 96.8849 151.719 97.319 151.067 97.536C150.85 97.6445 150.416 97.7531 149.982 97.7531ZM143.905 86.5756L144.665 87.3352C144.99 87.6608 145.207 87.8778 145.316 88.2034C146.184 89.6141 146.618 91.0249 147.052 92.3271C147.486 93.6293 147.92 94.7146 148.571 95.4742C149.114 96.0168 149.765 96.2338 150.525 96.0168C151.393 95.7997 151.936 95.1486 151.936 94.9316L152.261 93.0867L153.346 94.4975C153.672 94.823 154.54 95.7997 155.517 95.7997C156.168 95.7997 156.819 95.3656 157.47 94.4975L158.013 93.7378L158.664 94.389C158.664 94.389 159.315 95.0401 160.183 95.0401C160.726 95.0401 161.377 94.606 161.919 93.8464C163.656 91.459 161.702 86.9011 161.594 86.467C161.377 86.0329 161.051 85.4904 160.617 84.9478C157.036 80.2814 150.959 78.4366 142.603 79.6303H142.386C139.673 80.0643 137.828 81.2581 137.068 82.9944C135.983 85.1648 136.526 88.2033 138.479 91.893C139.89 94.4975 141.192 95.2571 141.843 94.9316C142.603 94.606 142.928 92.6526 141.843 90.4822L141.626 90.0482L143.905 86.5756Z" fill="#0E1B3C"/>
<path d="M150.309 83.9721C149.983 83.321 149.007 83.8636 149.332 84.5147C151.069 87.5533 151.937 90.8089 152.045 94.3901C152.045 95.0412 153.13 95.0412 153.13 94.3901C153.022 90.5919 152.154 87.1192 150.309 83.9721Z" fill="#0E1B3C"/>
<path d="M156.603 82.8872C156.278 82.2361 155.409 82.7787 155.626 83.4298C157.037 86.5769 157.797 89.8324 157.905 93.1966C157.905 93.8477 158.991 93.8477 158.991 93.1966C158.882 89.6154 158.122 86.1428 156.603 82.8872Z" fill="#0E1B3C"/>
<path d="M113.302 79.1963C113.085 79.1963 112.868 79.0877 112.651 78.8707L107.225 71.9255C106.9 71.5999 107.008 71.0573 107.334 70.7317C107.659 70.4062 108.202 70.5147 108.527 70.8403L113.953 77.7855C114.279 78.1111 114.17 78.6537 113.845 78.9792C113.628 79.0878 113.519 79.1963 113.302 79.1963Z" fill="#0E1B3C"/>
<path d="M109.287 84.0798C109.179 84.0798 108.961 84.0798 108.853 83.9713L103.861 80.4986C103.535 80.2816 103.427 79.739 103.644 79.4134C103.861 79.0879 104.404 78.9794 104.729 79.1964L109.721 82.669C110.047 82.886 110.155 83.4286 109.938 83.7542C109.83 83.9712 109.504 84.0798 109.287 84.0798Z" fill="#0E1B3C"/>
<path d="M102.017 112.404C104.078 100.25 108.636 60.4232 80.7467 57.4932C60.8876 55.4313 43.416 64.5469 42.4393 96.9943C42.1137 106.001 41.6796 114.466 41.5711 122.062C62.1899 120.977 82.3745 117.722 102.017 112.404Z" fill="#00D37F"/>
<path d="M101.148 84.515C100.822 84.515 100.497 84.298 100.388 83.9724L96.9154 74.2056C96.8069 73.7715 97.0239 73.3375 97.458 73.1204C97.8921 73.0119 98.3262 73.2289 98.5432 73.663L102.016 83.4298C102.124 83.8639 101.907 84.298 101.473 84.515C101.365 84.515 101.256 84.515 101.148 84.515Z" fill="#0E1B3C"/>
<path d="M114.825 101.551H113.089C111.895 101.551 111.135 100.358 111.57 99.2723L113.197 95.04L114.825 101.551Z" fill="#00D37F"/>
<path d="M115.909 102.311H113.087C112.328 102.311 111.568 101.877 111.025 101.226C110.591 100.575 110.483 99.7065 110.7 98.9468L113.196 92.3271L115.909 102.311ZM112.87 97.7531L112.219 99.598C112.111 99.815 112.111 100.141 112.328 100.358C112.436 100.575 112.762 100.683 112.979 100.683H113.738L112.87 97.7531Z" fill="white"/>
<path d="M132.62 82.1275L125.783 100.467C125.566 101.118 124.915 101.553 124.264 101.553H114.931L113.194 95.1498L113.954 93.088L115.907 87.7705L118.403 81.0423C118.62 80.3912 119.272 79.9571 119.923 79.9571H131.1C132.185 79.8486 132.945 81.0423 132.62 82.1275Z" fill="#00D37F"/>
<path d="M124.154 102.312H114.17L112.216 95.0408L117.642 80.7162C117.968 79.7395 118.945 79.0884 119.921 79.0884H131.099C131.858 79.0884 132.618 79.5225 133.161 80.1736C133.595 80.8247 133.703 81.6929 133.486 82.4525L126.649 100.792C126.107 101.66 125.13 102.312 124.154 102.312ZM115.363 100.684H124.154C124.479 100.684 124.805 100.467 124.913 100.141L131.858 81.8014C131.967 81.5843 131.967 81.2588 131.75 81.0417C131.641 80.8247 131.316 80.7162 131.099 80.7162H119.921C119.596 80.7162 119.27 80.9332 119.162 81.2588L113.953 95.1493L115.363 100.684Z" fill="#0E1B3C"/>
<path d="M128.278 95.5823C133.704 91.2415 132.51 85.5985 127.518 89.5052C124.046 92.2182 118.403 93.7375 112.977 94.8227L112.651 92.9778C113.302 92.5437 113.628 92.6523 113.845 93.0864L115.798 87.7689C115.581 87.6604 115.255 87.6603 115.038 87.5518C107.442 85.8155 104.729 88.203 103.318 96.6675C101.256 99.9231 85.9551 124.666 104.838 117.937C115.798 114.031 117.751 113.054 121.984 110.884C125.782 109.039 127.518 102.093 127.518 102.093C131.099 97.6442 128.278 95.5823 128.278 95.5823Z" fill="white"/>
<path d="M99.4123 119.783C97.676 119.783 96.4822 119.24 95.6141 118.263C91.9244 113.706 99.8463 100.466 102.451 96.2338C103.319 91.3505 104.621 88.6375 106.683 87.2267C108.636 85.9245 111.241 85.7074 115.148 86.6841C115.365 86.6841 115.69 86.7927 115.907 86.9012L116.775 87.1182L116.45 87.9864L114.279 93.6294C120.14 92.4357 124.263 90.8079 126.759 88.8545C130.015 86.3586 131.534 87.6608 131.86 88.2034C133.053 89.7227 132.294 92.8697 129.147 95.6912C129.472 96.1253 129.798 96.6679 129.798 97.5361C130.015 99.0554 129.364 100.683 127.953 102.419C127.627 103.613 125.783 109.69 122.093 111.644C117.752 113.814 115.799 114.791 104.838 118.697C102.885 119.349 100.932 119.783 99.4123 119.783ZM111.024 87.7693C109.613 87.7693 108.528 88.0949 107.66 88.6375C105.923 89.8312 104.838 92.2186 104.079 96.6679V96.7764L103.97 96.885C98.8696 104.915 94.6374 114.357 96.9163 117.178C97.893 118.48 100.606 118.372 104.513 116.961C115.473 113.054 117.427 112.078 121.659 109.907C125.131 108.171 126.759 101.66 126.759 101.66V101.443L126.868 101.334C128.061 99.9235 128.604 98.6213 128.387 97.5361C128.278 96.5594 127.627 96.1253 127.627 96.1253L126.759 95.4743L127.627 94.8231C130.666 92.4357 131.209 89.7227 130.666 89.0716C130.34 88.6375 129.364 88.8546 127.844 90.0483C124.914 92.3272 120.031 94.172 112.977 95.4743L112.109 95.5827L111.566 92.4356L112.001 92.1101C112.435 91.7845 112.869 91.6761 113.194 91.6761L114.605 88.0949C113.303 87.8778 112.109 87.7693 111.024 87.7693Z" fill="#0E1B3C"/>
<path d="M51.0128 68.1274C40.4864 79.7391 31.3708 108.822 38.099 123.147C41.8972 131.286 52.2065 132.588 66.3141 131.503C77.2746 130.635 90.4055 127.054 104.73 119.132C104.73 119.132 99.9552 102.528 103.645 96.1255L67.3993 98.4044L67.1823 66.8252L51.0128 68.1274Z" fill="#00D37F"/>
<path d="M67.7265 99.9252C67.2924 99.9252 66.9669 99.5997 66.9669 99.1656C66.3158 91.5692 66.2072 83.8643 66.4243 76.268C66.4243 75.8339 66.7498 75.5083 67.2924 75.5083C67.7265 75.5083 68.0521 75.9424 68.0521 76.3764C67.835 83.9728 67.9436 91.5692 68.5947 99.1656C68.4862 99.4911 68.1606 99.9252 67.7265 99.9252Z" fill="#0E1B3C"/>
<path d="M65.013 100.683C64.5789 100.683 64.2533 100.358 64.2533 99.9237C64.2533 99.4896 64.4704 99.0555 65.013 99.0555C77.4927 97.5363 89.1044 96.6681 101.584 96.1255C102.018 96.1255 102.452 96.4511 102.452 96.8851C102.452 97.3192 102.127 97.7533 101.693 97.7533C89.1044 98.2959 77.4927 99.1641 65.013 100.683C65.1215 100.683 65.013 100.683 65.013 100.683Z" fill="#0E1B3C"/>
<path d="M98.8682 119.458C98.5427 119.458 98.3256 119.241 98.1086 119.024C94.853 112.187 94.2019 104.808 96.1553 97.537C96.2638 97.103 96.6978 96.8859 97.1319 96.9945C97.566 97.103 97.783 97.5371 97.6745 97.9712C95.8297 104.808 96.3723 111.862 99.5194 118.373C99.7364 118.807 99.5193 119.241 99.0853 119.458C99.1938 119.35 98.9768 119.458 98.8682 119.458Z" fill="#0E1B3C"/>
<path d="M127.082 95.3654C125.562 96.9932 123.826 98.1869 121.764 99.0551C121.113 99.3806 121.656 100.249 122.307 100.032C124.369 99.1636 126.214 97.8614 127.841 96.125C128.275 95.691 127.516 94.8228 127.082 95.3654Z" fill="#0E1B3C"/>
<path d="M125.457 102.854L122.635 104.591C122.093 104.916 122.635 105.893 123.178 105.567L125.999 103.831C126.542 103.397 125.999 102.42 125.457 102.854Z" fill="#0E1B3C"/>
<path d="M112.107 94.8238C111.456 94.9323 110.913 95.0409 110.262 94.9324C109.611 94.8239 109.611 95.9091 110.262 96.0176C111.022 96.1261 111.673 96.0175 112.433 95.909C113.084 95.692 112.758 94.7153 112.107 94.8238Z" fill="#0E1B3C"/>
<path d="M88.5611 29.9283C81.8328 26.0216 72.8257 28.8431 68.3764 36.331C68.3764 36.331 68.3764 36.331 68.3764 36.4395C67.6168 36.1139 66.9656 35.7884 66.3145 35.5714C61.7567 34.3776 58.6096 37.5247 59.2607 41.2144C59.9119 44.47 62.6248 47.7255 66.6401 48.1596C67.5082 51.7408 69.5701 54.8878 72.6087 57.0582C81.6158 63.4609 88.344 58.1434 92.7933 50.6556C97.1341 43.1677 95.2893 33.835 88.5611 29.9283Z" fill="white"/>
<path d="M80.4209 60.6401C77.7079 60.6401 74.9949 59.6634 72.1734 57.6015C69.2434 55.5396 67.073 52.3926 66.0963 48.8114C61.8641 48.1603 59.1511 44.4706 58.4999 41.3236C58.0659 39.3702 58.717 37.4169 60.1277 36.1146C61.7555 34.5953 64.0344 34.0528 66.5304 34.7039C67.073 34.8124 67.6156 35.0294 68.1582 35.2465C70.4371 31.6653 73.6927 29.1694 77.4909 27.9756C81.5061 26.6734 85.6299 27.1075 89.1025 29.1693C96.1563 33.2931 98.2182 43.1684 93.5518 50.9818C90.4048 56.4078 86.7151 59.5548 82.6999 60.423C81.9402 60.64 81.1806 60.6401 80.4209 60.6401ZM64.4685 36.1146C63.1663 36.1146 62.0811 36.5487 61.2129 37.3083C60.2363 38.285 59.8022 39.5872 60.1277 41.1065C60.6703 43.928 63.0578 47.0751 66.7474 47.4006H67.29L67.3986 47.9432C68.2667 51.4159 70.2201 54.3459 73.0416 56.2993C76.2972 58.5782 79.3357 59.4463 82.2658 58.7952C85.8469 58.0356 89.1025 55.1055 92.0325 50.1136C96.1563 43.0598 94.42 34.2698 88.1258 30.4716C85.0873 28.6268 81.3976 28.3012 77.8165 29.4949C74.2353 30.6886 71.0882 33.1846 69.0264 36.6572L68.5923 37.3083L67.8326 36.9828C67.1815 36.6572 66.5304 36.3316 65.8793 36.2231C65.5537 36.2231 65.0111 36.1146 64.4685 36.1146Z" fill="#0E1B3C"/>
<path d="M83.7592 45.868C84.2389 45.5087 84.3366 44.8286 83.9773 44.3489C83.6181 43.8692 82.938 43.7715 82.4583 44.1308C81.9786 44.49 81.8809 45.1701 82.2401 45.6498C82.5994 46.1296 83.2795 46.2272 83.7592 45.868Z" fill="#0E1B3C"/>
<path d="M87.5851 52.9351C88.5618 50.6561 89.1044 48.3772 89.4299 45.8813C89.5385 45.2302 88.4533 45.0131 88.3448 45.7727C88.1277 48.0516 87.4766 50.3306 86.6084 52.501C86.2829 53.1521 87.2596 53.5862 87.5851 52.9351Z" fill="#0E1B3C"/>
<path d="M68.8108 42.9514C68.3767 40.4554 66.2064 38.5021 63.7104 38.3936C63.0593 38.3936 62.8423 39.4788 63.6019 39.4788C65.6638 39.5873 67.4001 40.998 67.8342 43.0599C67.8342 43.8195 68.9193 43.711 68.8108 42.9514Z" fill="#0E1B3C"/>
<path d="M92.0324 38.3933C88.5598 37.8507 76.9481 31.665 74.6692 38.7188C74.1266 40.4551 74.3437 41.8659 72.3903 41.7574C70.437 41.4318 70.871 39.2614 70.871 39.2614C69.1347 37.7421 67.5069 36.4399 65.9877 36.1144C66.7473 28.518 71.8477 24.8283 74.9948 25.805C74.9948 25.805 85.4127 14.0849 89.4279 22.2239C89.4279 22.2239 102.342 16.4723 104.295 28.8435C106.248 41.2148 92.0324 38.3933 92.0324 38.3933Z" fill="#0E1B3C"/>
<path d="M117.506 19.8621C117.533 19.8215 122.915 11.7809 122.915 11.7809C123.12 11.4715 123.333 11.1521 123.837 11.0402L151.329 4.94048C152.132 4.76236 152.931 5.27148 153.11 6.07591L154.104 10.5566L164.162 10.0726C164.969 10.0368 165.657 10.6661 165.694 11.4732L165.84 14.4553C169.225 14.818 172.701 15.1953 176.073 15.6266C176.871 15.7337 177.439 16.4695 177.342 17.2707L174.971 35.9451C174.923 36.3209 174.644 36.6097 174.294 36.6873C174.199 36.7084 174.098 36.7142 173.995 36.7001C173.516 36.639 173.179 36.2007 173.239 35.7216L175.575 17.3248C172.4 16.9226 169.126 16.5651 165.927 16.2219L166.794 33.9654L167.795 54.3997C167.828 55.1219 167.328 55.751 166.64 55.9036C166.561 55.921 166.481 55.9316 166.399 55.9367L156.931 56.3923L149.533 56.7492L161.108 58.2318L170.234 59.4014L172.74 39.6514C172.8 39.1724 173.237 38.8343 173.716 38.8953C174.194 38.9563 174.532 39.3947 174.471 39.8737L171.931 59.9049C171.847 60.5359 171.377 61.0211 170.793 61.1506C170.632 61.1863 170.462 61.1953 170.29 61.1714L160.888 59.9661L139.542 57.2327L135.621 57.4221L127.279 59.273C126.476 59.4512 125.676 58.9398 125.498 58.1342L117.243 20.9293C117.128 20.4187 117.348 20.0967 117.506 19.8621ZM119.807 19.5629L124.069 18.6174L124.174 18.5939C124.379 18.5497 124.856 18.4473 124.951 18.2998C124.973 18.265 124.985 18.1658 124.946 17.9929L123.936 13.3916L119.807 19.5629ZM127.145 57.5108L161.064 49.9851L157.374 33.355C157.269 32.884 157.566 32.417 158.036 32.3127C158.506 32.2084 158.973 32.5061 159.077 32.9771L162.821 49.8518C163 50.6585 162.493 51.4588 161.689 51.6371L145.7 55.1846L156.844 54.6472L166.038 54.2047L165.05 34.049L163.965 11.8318L154.488 12.2894L158.2 29.0173C158.304 29.4884 158.008 29.9553 157.538 30.0596C157.067 30.1639 156.601 29.8663 156.497 29.3952L151.461 6.70184L125.519 12.4577L126.652 17.6179C126.791 18.2425 126.714 18.7909 126.422 19.2461C125.974 19.9459 125.17 20.1661 124.666 20.278C124.623 20.2875 124.582 20.2966 124.543 20.3052L119.157 21.5003L127.146 57.5105L127.145 57.5108Z" fill="#06C2FD"/>
<path d="M149.916 19.158C150.021 19.6291 149.724 20.096 149.254 20.2003L124.905 25.6027C124.435 25.707 123.969 25.4094 123.864 24.9383C123.76 24.4673 124.056 24.0003 124.526 23.896L148.875 18.4936C149.345 18.3893 149.812 18.6859 149.916 19.158Z" fill="#06C2FD"/>
<path d="M125.872 29.9571L150.221 24.5547C150.691 24.4504 151.157 24.748 151.261 25.2191C151.366 25.6901 151.069 26.1571 150.599 26.2614L126.25 31.6638C125.78 31.7681 125.314 31.4704 125.209 30.9994C125.105 30.5283 125.402 30.0614 125.872 29.9571Z" fill="#06C2FD"/>
<path d="M127.218 36.0196L151.567 30.6172C152.037 30.5129 152.503 30.8105 152.608 31.2816C152.712 31.7526 152.415 32.2196 151.945 32.3239L127.596 37.7263C127.126 37.8306 126.66 37.5329 126.555 37.0619C126.451 36.5908 126.748 36.1239 127.218 36.0196Z" fill="#06C2FD"/>
<path d="M128.562 42.0816L152.911 36.6792C153.381 36.5749 153.847 36.8725 153.952 37.3436C154.056 37.8146 153.76 38.2816 153.289 38.3859L128.941 43.7883C128.47 43.8926 128.004 43.5949 127.9 43.1239C127.795 42.6528 128.092 42.1859 128.562 42.0816Z" fill="#06C2FD"/>
<path d="M129.908 48.1436L154.257 42.7412C154.727 42.6369 155.193 42.9345 155.298 43.4056C155.402 43.8766 155.106 44.3436 154.636 44.4479L130.287 49.8503C129.817 49.9546 129.35 49.657 129.246 49.1859C129.141 48.7149 129.438 48.2479 129.908 48.1436Z" fill="#06C2FD"/>
<path d="M27.0839 17.4708C24.2624 17.4708 21.2238 16.1686 18.5108 14.9749C16.883 14.3238 15.3638 13.5641 14.0615 13.2385C9.72074 12.0448 5.05435 13.13 1.4732 16.1686C1.14764 16.4941 0.605072 16.3856 0.279513 16.0601C-0.0460462 15.7345 0.062447 15.1919 0.388006 14.8663C4.40324 11.5022 9.61218 10.3085 14.4956 11.6107C16.0148 12.0448 17.5341 12.6959 19.1619 13.4556C23.6112 15.4089 28.2776 17.4708 31.6417 13.8897C31.9672 13.5641 32.5099 13.5641 32.8354 13.8897C33.161 14.2152 33.161 14.7578 32.8354 15.0834C30.9906 16.8197 29.0373 17.4708 27.0839 17.4708Z" fill="#D4F800"/>
<path d="M27.0841 25.8273C24.2626 25.8273 21.224 24.525 18.511 23.3312C16.8832 22.6801 15.364 21.9205 14.0617 21.595C9.72094 20.4012 5.05455 21.4865 1.4734 24.525C1.14784 24.8506 0.60527 24.742 0.279711 24.4164C-0.0458479 24.0909 0.0626454 23.5483 0.388205 23.2228C4.40343 19.8586 9.61238 18.6649 14.4958 19.9672C16.015 20.4012 17.5343 21.0524 19.1621 21.812C23.6114 23.7654 28.2778 25.8272 31.6419 22.2461C31.9674 21.9205 32.5101 21.9205 32.8356 22.2461C33.1612 22.5716 33.1612 23.1142 32.8356 23.4398C30.9908 25.1761 29.0375 25.8273 27.0841 25.8273Z" fill="#D4F800"/>
</svg>
