<svg width="326" height="40" viewBox="0 0 326 40" fill="none" xmlns="http://www.w3.org/2000/svg">
<path d="M196.112 17.2252L194.663 18.7481C193.23 17.3026 191.431 16.4508 189.248 16.4508C185.206 16.4508 182.128 19.6171 182.128 23.9535C182.128 28.2899 185.206 31.4304 189.248 31.4304C191.422 31.4304 193.324 30.5012 194.722 29.1159L196.112 30.656C194.45 32.5145 192.036 33.547 189.308 33.547C183.757 33.547 179.86 29.4343 179.86 23.9535C179.86 18.4728 183.765 14.3342 189.308 14.3342C192.036 14.3342 194.467 15.3667 196.112 17.2252Z" fill="#06C2FD"/>
<path d="M218.803 23.9535C218.803 29.4343 214.667 33.547 209.193 33.547C203.718 33.547 199.625 29.4343 199.625 23.9535C199.625 18.4728 203.727 14.3342 209.193 14.3342C214.659 14.3342 218.803 18.4728 218.803 23.9535ZM201.902 23.9535C201.902 28.2899 205.057 31.4304 209.193 31.4304C213.328 31.4304 216.509 28.2813 216.509 23.9535C216.509 19.6257 213.354 16.4508 209.193 16.4508C205.032 16.4508 201.902 19.6171 201.902 23.9535Z" fill="#06C2FD"/>
<path d="M241.041 21.8369V33.2544H238.807V22.5338C238.807 18.7739 236.65 16.4766 232.889 16.4766C229.419 16.4766 226.716 18.989 226.716 22.6457V33.2544H224.482V14.6354H226.699V17.8963C228.148 15.4011 230.741 14.3342 233.29 14.3342C237.92 14.3342 241.058 17.2252 241.058 21.8369H241.041Z" fill="#06C2FD"/>
<path d="M260.167 16.6919H251.657V26.8446C251.657 29.9937 253.303 31.4305 255.759 31.4305C257.345 31.4305 258.794 30.8799 259.877 30.0023L260.934 31.68C259.621 32.79 257.797 33.5385 255.579 33.5385C251.734 33.5385 249.423 31.3789 249.423 26.8704V16.6833H245.185V14.6269H249.423V8.55249H251.657V14.6269H260.167V16.6833V16.6919Z" fill="#06C2FD"/>
<path d="M282.585 33.2544H280.368V29.6751C278.875 32.0068 276.403 33.5556 273.051 33.5556C267.876 33.5556 263.834 29.5031 263.834 23.9621C263.834 18.4211 267.876 14.3428 273.051 14.3428C276.403 14.3428 278.875 15.9087 280.368 18.2232V14.6439H282.585V33.263V33.2544ZM266.11 23.9535C266.11 28.1522 269.112 31.4304 273.307 31.4304C277.503 31.4304 280.487 28.2211 280.487 23.9535C280.487 19.6859 277.485 16.4508 273.307 16.4508C269.129 16.4508 266.11 19.7375 266.11 23.9535ZM271.303 11.8476L275.618 5.91089H278.441L273.52 11.8476H271.303Z" fill="#06C2FD"/>
<path d="M308.447 23.9535C308.447 29.4945 304.405 33.547 299.212 33.547C295.878 33.547 293.406 32.0241 291.939 29.7096V33.2545H289.705V4.7666H291.939V18.1802C293.406 15.883 295.878 14.3429 299.212 14.3429C304.405 14.3429 308.447 18.4212 308.447 23.9621V23.9535ZM291.785 23.9535C291.785 28.2297 294.804 31.4304 298.965 31.4304C303.126 31.4304 306.162 28.1437 306.162 23.9535C306.162 19.7634 303.177 16.4508 298.965 16.4508C294.753 16.4508 291.785 19.6773 291.785 23.9535Z" fill="#06C2FD"/>
<path d="M316.846 7.95025C316.846 8.86228 316.138 9.5506 315.234 9.5506C314.331 9.5506 313.648 8.85367 313.648 7.95025C313.648 7.04683 314.331 6.30688 315.234 6.30688C316.138 6.30688 316.846 7.03823 316.846 7.95025ZM316.36 33.2546H314.126V14.6356H316.36V33.2546Z" fill="#06C2FD"/>
<path d="M325.714 33.2545H323.48V4.7666H325.714V33.2545Z" fill="#06C2FD"/>
<path d="M39.6335 35.4399V4.56011C39.6335 2.03914 37.6126 0 35.1142 0H4.51931C2.0209 0.008604 0 2.04774 0 4.56011C0 4.99892 0.17054 5.42912 0.486039 5.73887L5.46581 10.7636C5.84953 11.1508 6.472 11.1508 6.85571 10.7636L13.9417 3.61368C15.1695 2.3747 17.1649 2.3747 18.3927 3.61368C19.5865 4.81824 19.6206 6.74554 18.4951 7.98451C18.4524 8.01893 18.4183 8.05334 18.3757 8.08776L10.5991 15.9346L3.86273 22.7318C3.78599 22.8092 3.71777 22.8866 3.64956 22.9727C2.63484 24.2203 2.70306 26.0615 3.86273 27.2317C5.02241 28.4018 6.84718 28.4706 8.0836 27.4468C8.16034 27.3779 8.24561 27.3091 8.31383 27.2317L15.0502 20.4345L18.6486 16.8036C19.885 15.7797 21.7098 15.8486 22.8694 17.0187C24.0206 18.1803 24.0973 20.0301 23.0826 21.2777L19.4842 24.9086L12.7479 31.7057C12.6711 31.7832 12.6029 31.8606 12.5347 31.9467C11.52 33.1942 11.5967 35.0355 12.7479 36.2056C13.899 37.3672 15.7323 37.4446 16.9687 36.4207C17.0455 36.3519 17.1308 36.2831 17.2075 36.2056L23.9438 29.4085L31.7205 21.5616C31.7205 21.5616 31.7887 21.4842 31.8228 21.4412C33.0933 20.2796 35.0801 20.3485 36.2654 21.6563C37.408 22.9297 37.2715 24.9172 36.0692 26.1304L29.0771 33.1856C28.6934 33.5728 28.6934 34.2009 29.0771 34.5881L33.9545 39.5096C34.2615 39.8193 34.6879 40 35.1227 40C37.6211 40 39.642 37.9608 39.642 35.4399H39.6335Z" fill="#0050DC"/>
<path d="M59.0239 12.8973C54.1294 12.8973 49.593 16.9928 49.593 23.1791C49.593 29.8041 54.2488 33.6587 59.5014 33.6587C64.1571 33.6587 67.2269 30.8882 68.2586 27.4725L64.3533 26.2249C63.7137 28.1522 62.2812 29.6407 59.4929 29.6407C56.7045 29.6407 54.317 27.5155 54.1976 24.5385H68.3695C68.4121 24.4611 68.4889 23.8158 68.4889 23.05C68.4889 16.8637 64.9843 12.8887 59.0154 12.8887L59.0239 12.8973ZM54.3255 21.1313C54.4875 19.0405 56.1588 16.7949 59.0665 16.7949C62.2471 16.7949 63.7649 18.8426 63.8416 21.1313H54.3255Z" fill="#0050DC"/>
<path d="M94.9227 12.8972C92.3731 12.8972 90.0623 13.8006 88.5274 16.4077C87.4786 14.076 85.2104 12.8972 82.6182 12.8972C80.3926 12.8972 77.9198 13.9641 76.7857 16.0033V13.4737H72.292V33.3747H76.9477V21.5615C76.9477 19.0319 78.5252 17.1476 81.0407 17.1476C83.7097 17.1476 84.8437 18.9458 84.8437 21.2345V33.3747H89.4569V21.5615C89.4569 19.1093 91.077 17.1476 93.5498 17.1476C96.1847 17.1476 97.3529 18.9028 97.3529 21.2345V33.3747H101.889V20.4601C101.889 15.1859 98.487 12.8972 94.9227 12.8972Z" fill="#0050DC"/>
<path d="M108.216 6.34106C106.554 6.34106 105.181 7.72631 105.181 9.44711C105.181 11.1679 106.554 12.5101 108.216 12.5101C109.879 12.5101 111.295 11.1593 111.295 9.44711C111.295 7.73491 109.922 6.34106 108.216 6.34106Z" fill="#0050DC"/>
<path d="M110.57 13.4653H105.914V33.3664H110.57V13.4653Z" fill="#0050DC"/>
<path d="M162.004 23.0585C162.004 16.8723 158.5 12.8972 152.531 12.8972C147.636 12.8972 143.1 16.9927 143.1 23.179C143.1 29.8041 147.756 33.6587 153.008 33.6587C157.664 33.6587 160.734 30.8882 161.766 27.4724L157.86 26.2248C157.221 28.1521 155.788 29.6406 153 29.6406C150.212 29.6406 147.824 27.5154 147.705 24.5384H161.877C161.919 24.461 161.996 23.8157 161.996 23.0499L162.004 23.0585ZM147.833 21.1313C147.995 19.0405 149.666 16.7948 152.574 16.7948C155.754 16.7948 157.272 18.8426 157.349 21.1313H147.833Z" fill="#0050DC"/>
<path d="M136.44 26.9131V17.681H140.533V13.4737H136.44V6.74536H131.785V13.4737H123.624V6.74536H118.969V13.4737H114.611V17.8703H118.969V27.6961C118.969 31.413 121.237 33.6243 124.878 33.6243C126.575 33.6243 127.47 33.2973 127.751 33.1769V29.2534C127.547 29.2965 126.779 29.4169 126.131 29.4169C124.392 29.4169 123.624 28.6856 123.624 26.9217V17.6897H131.785V27.7047C131.785 31.4216 134.053 33.6329 137.694 33.6329C139.391 33.6329 140.286 33.3059 140.568 33.1855V29.262C140.363 29.3051 139.595 29.4255 138.947 29.4255C137.208 29.4255 136.44 28.6942 136.44 26.9303V26.9131Z" fill="#0050DC"/>
</svg>
