<svg width="22" height="22" viewBox="0 0 22 22" fill="none" xmlns="http://www.w3.org/2000/svg">
<path d="M21.7811 19.4919V2.50806C21.7811 1.12153 20.6704 0 19.2974 0H2.48364C1.11061 0.0047322 0 1.12626 0 2.50806C0 2.7494 0.0937223 2.98602 0.267108 3.15638L3.0038 5.91998C3.21467 6.13293 3.55676 6.13293 3.76763 5.91998L7.6618 1.98752C8.3366 1.30609 9.43315 1.30609 10.1079 1.98752C10.764 2.65003 10.7827 3.71005 10.1642 4.39148C10.1407 4.41041 10.122 4.42934 10.0986 4.44827L5.82484 8.76403L2.12281 12.5025C2.08063 12.5451 2.04315 12.5877 2.00566 12.635C1.44801 13.3211 1.4855 14.3338 2.12281 14.9774C2.76012 15.621 3.76295 15.6589 4.44243 15.0957C4.48461 15.0579 4.53147 15.02 4.56896 14.9774L8.27099 11.239L10.2485 9.24199C10.928 8.67886 11.9308 8.71671 12.5682 9.36029C13.2008 9.99914 13.243 11.0166 12.6853 11.7027L10.7078 13.6997L7.00574 17.4382C6.96356 17.4807 6.92607 17.5233 6.88859 17.5707C6.33094 18.2568 6.37311 19.2695 7.00574 19.9131C7.63836 20.5519 8.64588 20.5945 9.32537 20.0314C9.36754 19.9935 9.4144 19.9557 9.45658 19.9131L13.1586 16.1747L17.4323 11.8589C17.4323 11.8589 17.4698 11.8163 17.4886 11.7926C18.1868 11.1538 19.2787 11.1917 19.93 11.9109C20.558 12.6113 20.483 13.7045 19.8223 14.3717L15.9796 18.2521C15.7688 18.465 15.7688 18.8105 15.9796 19.0234L18.6601 21.7303C18.8288 21.9006 19.0631 22 19.3021 22C20.6751 22 21.7857 20.8785 21.7857 19.4919H21.7811Z" fill="white"/>
</svg>
