<svg width="228" height="28" viewBox="0 0 228 28" fill="none" xmlns="http://www.w3.org/2000/svg">
<path d="M137.279 12.0576L136.264 13.1237C135.261 12.1118 134.002 11.5156 132.474 11.5156C129.644 11.5156 127.49 13.732 127.49 16.7675C127.49 19.803 129.644 22.0013 132.474 22.0013C133.996 22.0013 135.327 21.3508 136.306 20.3811L137.279 21.4592C136.115 22.7601 134.425 23.4829 132.515 23.4829C128.63 23.4829 125.902 20.604 125.902 16.7675C125.902 12.9309 128.636 10.034 132.515 10.034C134.425 10.034 136.127 10.7567 137.279 12.0576Z" fill="#06C2FD"/>
<path d="M153.162 16.7675C153.162 20.604 150.267 23.4829 146.435 23.4829C142.603 23.4829 139.738 20.604 139.738 16.7675C139.738 12.9309 142.609 10.034 146.435 10.034C150.261 10.034 153.162 12.9309 153.162 16.7675ZM141.332 16.7675C141.332 19.803 143.54 22.0013 146.435 22.0013C149.33 22.0013 151.556 19.7969 151.556 16.7675C151.556 13.738 149.348 11.5156 146.435 11.5156C143.522 11.5156 141.332 13.732 141.332 16.7675Z" fill="#06C2FD"/>
<path d="M168.729 15.2859V23.2781H167.165V15.7737C167.165 13.1417 165.655 11.5336 163.023 11.5336C160.593 11.5336 158.701 13.2923 158.701 15.852V23.2781H157.137V10.2448H158.689V12.5274C159.704 10.7808 161.518 10.034 163.303 10.034C166.544 10.034 168.741 12.0576 168.741 15.2859H168.729Z" fill="#06C2FD"/>
<path d="M182.117 11.6842H176.16V18.7911C176.16 20.9955 177.312 22.0013 179.031 22.0013C180.141 22.0013 181.156 21.6158 181.914 21.0015L182.654 22.176C181.735 22.9529 180.458 23.4769 178.906 23.4769C176.214 23.4769 174.596 21.9652 174.596 18.8092V11.6782H171.63V10.2388H174.596V5.98666H176.16V10.2388H182.117V11.6782V11.6842Z" fill="#06C2FD"/>
<path d="M197.809 23.2781H196.257V20.7726C195.213 22.4048 193.482 23.4889 191.136 23.4889C187.513 23.4889 184.684 20.6522 184.684 16.7735C184.684 12.8948 187.513 10.04 191.136 10.04C193.482 10.04 195.213 11.1361 196.257 12.7563V10.2508H197.809V23.2841V23.2781ZM186.277 16.7675C186.277 19.7066 188.378 22.0013 191.315 22.0013C194.252 22.0013 196.341 19.7548 196.341 16.7675C196.341 13.7801 194.24 11.5156 191.315 11.5156C188.39 11.5156 186.277 13.8163 186.277 16.7675ZM189.912 8.29336L192.933 4.13763H194.908L191.464 8.29336H189.912Z" fill="#06C2FD"/>
<path d="M215.913 16.7675C215.913 20.6461 213.084 23.4829 209.449 23.4829C207.115 23.4829 205.384 22.4168 204.357 20.7967V23.2781H202.793V3.33661H204.357V12.7262C205.384 11.1181 207.115 10.04 209.449 10.04C213.084 10.04 215.913 12.8948 215.913 16.7735V16.7675ZM204.25 16.7675C204.25 19.7608 206.363 22.0013 209.276 22.0013C212.188 22.0013 214.313 19.7006 214.313 16.7675C214.313 13.8344 212.224 11.5156 209.276 11.5156C206.327 11.5156 204.25 13.7741 204.25 16.7675Z" fill="#06C2FD"/>
<path d="M221.792 5.56509C221.792 6.20351 221.297 6.68533 220.664 6.68533C220.031 6.68533 219.554 6.19749 219.554 5.56509C219.554 4.9327 220.031 4.41473 220.664 4.41473C221.297 4.41473 221.792 4.92667 221.792 5.56509ZM221.452 23.2782H219.888V10.2448H221.452V23.2782Z" fill="#06C2FD"/>
<path d="M228 23.2781H226.436V3.33661H228V23.2781Z" fill="#06C2FD"/>
<path d="M27.7435 24.8079V3.19208C27.7435 1.4274 26.3288 0 24.5799 0H3.16352C1.41463 0.0060228 0 1.43342 0 3.19208C0 3.49924 0.119378 3.80039 0.340227 4.01721L3.82607 7.53452C4.09467 7.80555 4.5304 7.80555 4.799 7.53452L9.75916 2.52958C10.6187 1.66229 12.0154 1.66229 12.8749 2.52958C13.7106 3.37277 13.7344 4.72188 12.9466 5.58916C12.9167 5.61325 12.8928 5.63734 12.863 5.66143L7.41935 11.1542L2.70391 15.9122C2.65019 15.9664 2.60244 16.0207 2.55469 16.0809C1.84439 16.9542 1.89214 18.2431 2.70391 19.0622C3.51568 19.8813 4.79303 19.9294 5.65852 19.2127C5.71224 19.1646 5.77193 19.1164 5.81968 19.0622L10.5351 14.3042L13.054 11.7625C13.9195 11.0458 15.1968 11.094 16.0086 11.9131C16.8144 12.7262 16.8681 14.0211 16.1578 14.8944L13.6389 17.436L8.92351 22.194C8.86979 22.2482 8.82204 22.3024 8.77429 22.3627C8.06399 23.236 8.11771 24.5248 8.92351 25.3439C9.72931 26.157 11.0126 26.2112 11.8781 25.4945C11.9318 25.4463 11.9915 25.3981 12.0452 25.3439L16.7607 20.5859L22.2043 15.0931C22.2043 15.0931 22.2521 15.0389 22.2759 15.0088C23.1653 14.1957 24.5561 14.2439 25.3857 15.1594C26.1856 16.0508 26.0901 17.442 25.2485 18.2912L20.354 23.2299C20.0854 23.501 20.0854 23.9406 20.354 24.2117L23.7682 27.6567C23.9831 27.8735 24.2815 28 24.5859 28C26.3348 28 27.7494 26.5726 27.7494 24.8079H27.7435Z" fill="white"/>
<path d="M41.3168 9.02811C37.8906 9.02811 34.7151 11.895 34.7151 16.2254C34.7151 20.8629 37.9742 23.5611 41.651 23.5611C44.91 23.5611 47.0588 21.6218 47.7811 19.2307L45.0473 18.3574C44.5997 19.7065 43.5969 20.7485 41.645 20.7485C39.6932 20.7485 38.0219 19.2609 37.9384 17.177H47.8587C47.8885 17.1228 47.9422 16.6711 47.9422 16.135C47.9422 11.8046 45.489 9.02209 41.3108 9.02209L41.3168 9.02811ZM38.0279 14.7919C38.1413 13.3284 39.3112 11.7564 41.3466 11.7564C43.573 11.7564 44.6355 13.1899 44.6892 14.7919H38.0279Z" fill="white"/>
<path d="M66.4458 9.02814C64.6611 9.02814 63.0436 9.66053 61.9692 11.4854C61.235 9.85326 59.6473 9.02814 57.8327 9.02814C56.2748 9.02814 54.5438 9.77496 53.75 11.2024V9.43166H50.6044V23.3624H53.8634V15.0931C53.8634 13.3224 54.9676 12.0034 56.7285 12.0034C58.5967 12.0034 59.3906 13.2622 59.3906 14.8642V23.3624H62.6198V15.0931C62.6198 13.3766 63.7539 12.0034 65.4848 12.0034C67.3292 12.0034 68.147 13.2321 68.147 14.8642V23.3624H71.3224V14.3222C71.3224 10.6302 68.9408 9.02814 66.4458 9.02814Z" fill="white"/>
<path d="M75.7514 4.43875C74.5875 4.43875 73.6265 5.40842 73.6265 6.61298C73.6265 7.81754 74.5875 8.7571 75.7514 8.7571C76.9153 8.7571 77.9062 7.81152 77.9062 6.61298C77.9062 5.41445 76.9452 4.43875 75.7514 4.43875Z" fill="white"/>
<path d="M77.3988 9.42566H74.1398V23.3564H77.3988V9.42566Z" fill="white"/>
<path d="M113.403 16.1411C113.403 11.8107 110.95 9.02814 106.772 9.02814C103.346 9.02814 100.17 11.895 100.17 16.2254C100.17 20.8629 103.429 23.5612 107.106 23.5612C110.365 23.5612 112.514 21.6218 113.236 19.2308L110.502 18.3575C110.055 19.7066 109.052 20.7485 107.1 20.7485C105.148 20.7485 103.477 19.2609 103.393 17.177H113.314C113.344 17.1228 113.397 16.6711 113.397 16.135L113.403 16.1411ZM103.483 14.792C103.596 13.3284 104.766 11.7565 106.802 11.7565C109.028 11.7565 110.09 13.1899 110.144 14.792H103.483Z" fill="white"/>
<path d="M95.5084 18.8393V12.3768H98.3735V9.43166H95.5084V4.72183H92.2494V9.43166H86.5372V4.72183H83.2782V9.43166H80.228V12.5093H83.2782V19.3874C83.2782 21.9892 84.8659 23.5371 87.4146 23.5371C88.6024 23.5371 89.2291 23.3082 89.4261 23.2239V20.4775C89.2829 20.5076 88.7457 20.5919 88.292 20.5919C87.0744 20.5919 86.5372 20.08 86.5372 18.8453V12.3828H92.2494V19.3934C92.2494 21.9952 93.8371 23.5431 96.3859 23.5431C97.5737 23.5431 98.2004 23.3142 98.3974 23.2299V20.4835C98.2541 20.5136 97.7169 20.5979 97.2633 20.5979C96.0456 20.5979 95.5084 20.086 95.5084 18.8513V18.8393Z" fill="white"/>
</svg>
