<svg xmlns="http://www.w3.org/2000/svg" fill="none" viewBox="0 0 288 282">
  <style>
    :root {
      --black: 214 24% 11%;
      --white: 0 0% 100%;
      --primary: 218.3 100% 32.6%;
      --secondary: 156 100% 41%;
    }
  </style>
  <path fill="hsl(var(--black))"
    d="M127.52 270.84c-.2 0-.41-.1-.52-.2l-10.6-10.7a.81.81 0 0 1 0-1.14.81.81 0 0 1 1.14 0l10.71 10.7c.31.3.31.82 0 1.14-.31.1-.52.2-.73.2Z" />
  <path fill="hsl(var(--black))"
    d="M116.92 270.84a.8.8 0 0 1-.52-.2.81.81 0 0 1 0-1.15l10.7-10.69a.82.82 0 0 1 1.15 0c.31.31.31.83 0 1.14l-10.81 10.7a.8.8 0 0 1-.52.2Zm10.6-23.05c-.1 0-.3 0-.41-.1a.8.8 0 0 1-.21-1.04l5.61-8.62a.8.8 0 0 1 1.04-.2c.31.2.42.72.21 1.03l-5.61 8.62c-.1.2-.31.31-.63.31Zm5.61 4.46c-.2 0-.41-.1-.62-.3-.31-.32-.2-.84.1-1.15l5.72-4.46c.31-.31.83-.21 1.15.1.3.31.2.83-.1 1.14l-5.72 4.47c-.21.1-.32.2-.53.2ZM53.62 115.72c-.21 0-.52-.1-.63-.31l-4.16-5.61c-.2-.31-.2-.83.21-1.04.31-.2.83-.2 1.04.2l4.06 5.62c.2.3.2.83-.21 1.03 0 .1-.21.1-.31.1Zm0-20.25a.78.78 0 0 1-.73-.52c-.1-.42.1-.83.52-1.04l9.87-3.53a.9.9 0 0 1 1.04.52c.1.42-.1.83-.52 1.04l-9.87 3.53c-.2-.1-.31 0-.31 0Zm91.06 31.67c-8.63 2.7-27.03 12.35-32.23 10.17-3.22-1.45-3.84-5.09-5.09-9.24-4.99 4.67-11.74 7.37-18.7 9.35 2.07 13.29 21.2 26.37 21.2 26.37s43.34-39.35 34.82-36.65Z" />
  <path fill="hsl(var(--black))"
    d="m109.86 164.73-.53-.31c-.83-.52-19.33-13.4-21.51-26.9l-.1-.73.62-.2c8.31-2.29 14.13-5.2 18.4-9.14l.93-.83.31 1.25c.21.51.31 1.14.52 1.66.94 3.32 1.67 6.02 4.16 7.06 3.33 1.45 13.3-2.8 21.41-6.13 3.85-1.66 7.6-3.22 10.3-4.05 1.03-.31 1.66-.2 1.97.42.52.83 1.25 2.18-17.46 20.24-9.05 8.73-18.4 17.24-18.5 17.34l-.52.32Zm-20.28-26.8c2.3 11.43 17.26 22.75 20.28 24.82 16.1-14.53 33.05-31.04 35.02-34.88-2.6.83-6.23 2.38-10.08 3.94-9.25 3.84-18.7 7.79-22.56 6.13-3.11-1.35-4.05-4.68-5.09-8.1 0-.1-.1-.31-.1-.42-4.37 3.64-9.88 6.34-17.47 8.52Z" />
  <path fill="hsl(var(--black))"
    d="M43.02 200.65c-.21 0-.31 0-.52-.2-.31-.32-.42-.73-.1-1.15L151.94 54.46c.21-.32.73-.42 1.15-.1.3.3.41.72.1 1.13L43.64 200.34c-.2.2-.41.31-.62.31Zm-12.17-87.74-4.67 25.96L.92 128.9l10.4-42.88c5.4.62 8.1 5.6 9.76 11.1.1.32.21.63.31 1.05.32.93.52 1.87.73 2.9.1.32.21.73.21 1.04.42 1.87.83 3.64 1.14 5.2 1.98 7.57 7.38 5.6 7.38 5.6Z" />
  <path fill="hsl(var(--black))"
    d="M26.8 139.9.1 129.43 10.8 85.3l.73.1c6.45.73 9.05 6.96 10.4 11.64.1.3.2.72.3 1.03.32 1.04.53 1.98.74 2.91.1.31.2.73.2 1.04.21.73.32 1.45.52 2.18a135 135 0 0 0 .63 2.9c.62 2.5 1.56 4.06 3.01 4.78 1.67.83 3.23.31 3.23.31l1.24-.51-4.99 28.24ZM1.96 128.39l23.7 9.35 4.26-23.88c-.83.1-2.08 0-3.32-.63-1.88-.93-3.12-2.9-3.75-5.81l-.62-2.9c-.2-.73-.31-1.46-.52-2.19-.1-.31-.1-.73-.2-1.04-.22-.93-.42-1.87-.74-2.9l-.3-.94c-1.98-6.33-4.69-9.66-8.43-10.38L1.96 128.38Z" />
  <path fill="hsl(var(--primary))"
    d="M113.7 152.37c-30.98-10.18-86.8-43.2-86.8-43.2s-8.83 33.13-11.43 41.43c0 0 33.78 14.02 47.3 21.8 0 0 62.88-4.14 61.64-12.45-1.25-8.3-10.7-7.58-10.7-7.58Z" />
  <path fill="hsl(var(--white))"
    d="m22.43 102.01-4.57 2.28c-.62.32-1.14-.62-.52-.93l4.78-2.39c.2.42.31.73.31 1.04Zm-.93-3.84-4.78 2.39c-.63.31-1.14-.62-.52-.94l4.99-2.49c.1.31.2.63.31 1.04Z" />
  <path fill="hsl(var(--black))" d="m136.77 199.1-50.93 3.84 28.38-46.62 38.35 25.12-15.8 17.66Z" />
  <path fill="hsl(var(--white))"
    d="M104.66 109.7c-3.95 0-1.15 7.68-1.15 7.68s-.31.1-.83.31c-1.14-2.5-3.33-5.71-6.34-5.81-2.08 0-2.4 2.9-2.4 2.9s-1.97.52-2.6 1.14c-1.55 1.56-1.76 4.05-1.76 4.05-2.9 1.04-3.64 6.13-.93 16.72.2.94.62 1.87.93 2.9a70.92 70.92 0 0 0 18.6-8.71c-.3-1.04-.62-2.08-.93-3.22 5-7.69.21-17.97-2.6-17.97Z" />
  <path fill="hsl(var(--black))"
    d="m89.06 140.64-.3-.63a34.47 34.47 0 0 1-1.05-3c-2.6-10.08-2.28-15.8.94-17.45.1-.83.62-2.7 1.87-4.05.52-.52 1.77-.94 2.5-1.14.3-1.35 1.14-3.12 3.11-3.12 2.5 0 4.37 1.77 5.72 3.84-.31-1.66-.52-3.84.41-5.09.32-.51 1.04-1.14 2.3-1.14 1.24 0 2.49 1.14 3.63 3.22 2.29 4.16 3.01 10.6-.2 15.78.2.52.3 1.15.51 1.67l.31 1.24.21.52-.52.31a74.36 74.36 0 0 1-18.81 8.83l-.63.2Zm7.18-27.83c-1.36 0-1.67 2.18-1.67 2.28l-.1.52-.52.1c-.83.21-1.98.63-2.18.94a6.42 6.42 0 0 0-1.56 3.53v.52l-.52.2c-2.7.94-2.8 6.55-.42 15.79.2.62.42 1.35.62 2.08a69.24 69.24 0 0 0 17.26-8.1c-.1-.21-.1-.42-.2-.63-.22-.62-.42-1.34-.63-1.97l-.1-.31.2-.31c3.12-4.67 2.29-10.8.31-14.43-.93-1.77-1.87-2.4-2.28-2.4-.63 0-.83.22-.94.42-.83 1.15-.1 4.47.52 6.23l.31.73-.72.31s-.32.1-.73.31l-.73.31-.31-.72c-1.04-2.5-3.02-5.4-5.61-5.4Z" />
  <path fill="hsl(var(--black))"
    d="M93.02 121.12c-.52-.42-1.25.3-.73.72 1.66 1.56 3.33 3.43 4.05 5.61.32.93.94 2.7-.93 3.01-.83.1-1.66-.83-2.18-1.45-.63-.83-1.15-1.66-1.87-2.29-.53-.41-1.25.31-.73.73 1.24 1.25 1.97 3.11 3.74 3.84 1.25.52 2.6.2 3.12-1.04 1.45-3-2.5-7.27-4.47-9.13Z" />
  <path fill="hsl(var(--black))"
    d="M101.75 117.8c-.42-.53-1.14.2-.73.72a4.16 4.16 0 0 1-.83 6.33c-.42-2.7-2.91-5.6-4.37-7.27-.41-.52-1.14.21-.72.73 1.66 1.87 6.23 7.06 2.9 9.35-.51.41 0 1.24.53.93a3.38 3.38 0 0 0 1.66-2.7c.1.1.31.1.42 0 2.9-1.97 3.42-5.6 1.14-8.1Zm-13.72 23.36c-.21 0-.32 0-.52-.21-.32-.2-.42-.73-.1-1.14l6.75-8.93c.2-.31.73-.42 1.14-.1.31.2.42.72.1 1.14l-6.75 8.93a.9.9 0 0 1-.62.3Z" />
  <path fill="hsl(var(--primary))" d="m136.26 199.3-50.94 3.84 28.38-46.72 38.36 25.23-15.8 17.65Z" />
  <path fill="hsl(var(--secondary))"
    d="M138.75 208.13H50.2c-1.35 0-2.7-.73-3.43-1.87L35 187.46a4 4 0 0 1 3.43-6.12H127c1.36 0 2.7.73 3.44 1.87l11.74 18.8a4.05 4.05 0 0 1-3.43 6.12Z" />
  <path fill="hsl(var(--black))"
    d="M138.75 208.96H50.2a4.75 4.75 0 0 1-4.05-2.28l-11.75-18.8a4.64 4.64 0 0 1-.1-4.78 4.65 4.65 0 0 1 4.15-2.49h88.57c1.66 0 3.11.83 4.05 2.29l11.75 18.8c.93 1.44.93 3.31.1 4.77a4.77 4.77 0 0 1-4.16 2.49Zm-100.3-26.79c-1.15 0-2.19.62-2.81 1.66a3 3 0 0 0 .1 3.22l11.75 18.8a3.23 3.23 0 0 0 2.7 1.55h88.56c1.15 0 2.19-.62 2.8-1.66a3 3 0 0 0-.1-3.22l-11.74-18.8a3.23 3.23 0 0 0-2.7-1.55H38.44Z" />
  <path fill="hsl(var(--black))"
    d="M132 200.45H86.97a.82.82 0 0 1-.83-.83c0-.52.31-.84.83-.84H132c.42 0 .83.32.83.84 0 .51-.41.83-.83.83Zm-3.75-9.55H97.8a.82.82 0 0 1-.84-.84c0-.52.32-.83.84-.83h30.45c.42 0 .83.31.83.83s-.41.83-.83.83Zm-64.23 59.07 21.93-6.54 7.07 24.09-42.2 12.87c-2.19-4.98.72-9.76 4.57-14.01l.73-.73c.72-.73 1.35-1.45 2.07-2.08l.73-.72c1.35-1.25 2.7-2.5 3.85-3.64 5.72-5.6 1.25-9.24 1.25-9.24Z" />
  <path fill="hsl(var(--black))"
    d="m50.4 281.33-.32-.62c-2.6-5.92 1.46-11.32 4.68-14.85.2-.31.52-.52.73-.83a40.1 40.1 0 0 1 2.18-2.08c.2-.2.52-.52.83-.73.52-.52 1.15-1.03 1.66-1.55.73-.73 1.46-1.35 2.19-2.08 1.76-1.76 2.7-3.43 2.6-4.98-.1-1.87-1.36-2.91-1.46-3.02l-1.14-.93 24-7.16 7.6 25.64-43.56 13.19Zm14.96-30.94a5.3 5.3 0 0 1 1.04 3.11c.1 2.08-.93 4.15-3.12 6.23-.72.63-1.45 1.35-2.18 2.08-.52.52-1.14 1.04-1.66 1.56-.31.2-.52.51-.73.72-.73.63-1.35 1.35-2.08 2.08l-.73.73c-4.47 4.88-6.03 8.93-4.67 12.56L91.97 267l-6.65-22.63-19.96 6.02Z" />
  <path fill="hsl(var(--white))"
    d="m58.92 262.74 4.26 2.7c.52.42.1 1.25-.52.94l-4.47-2.91c.2-.31.52-.52.73-.73Zm-2.81 2.81 4.47 2.9c.52.31.1 1.25-.52.94l-4.67-3.01c.2-.31.41-.52.72-.83Z" />
  <path fill="hsl(var(--primary))"
    d="M115.06 160.78c-5-1.97-10.4-3.01-15.6-4.46-31.5 1.35-59.77 5.91-58.52 34.16C42.5 224 56.43 259.1 56.43 259.1l37-9.66S83.66 207 81.38 196.6l26.6-17.75 7.08-18.07Z" />
  <path fill="hsl(var(--black))"
    d="M80.54 196.29c-.3 0-.62-.2-.72-.62l-1.56-6.44c-.1-.41.1-.83.52-.93.41-.1.83.1.93.51l1.56 6.44c.1.42-.1.83-.52.94-.1.1-.2.1-.2.1Zm28.28-30.32h-.2c-22.05-7.06-42.52-4.67-54.27 0-.42.2-.83 0-1.04-.41-.2-.42 0-.84.42-1.04 11.95-4.78 32.84-7.27 55.3 0 .41.1.62.52.52.93a.78.78 0 0 1-.73.52Z" />
  <path fill="hsl(var(--white))" d="M153.61 268.45V1.5h127.86v223.55l-17.99 11.42 17.99 11.42v20.56H153.6Z" />
  <path fill="hsl(var(--black))"
    d="M280.64 2.23v222.4l-18.6 11.84 18.6 11.84v19.31h-126.3V2.23h126.3ZM282.2.67H152.78v268.51H282.2v-21.7l-.73-.41-16.53-10.5 16.53-10.48.73-.41V.67Z" />
  <path fill="hsl(var(--secondary))" d="M268.16 2.23h-71.3v79.43h71.3V2.23Z" />
  <path fill="hsl(var(--black))"
    d="M268.17 95.47h-7.28a.82.82 0 0 1-.83-.83c0-.52.31-.83.83-.83h7.28c.41 0 .83.31.83.83s-.42.83-.83.83Zm-14.04 0H221.4a.82.82 0 0 1-.83-.83c0-.52.31-.83.83-.83h32.74c.42 0 .83.31.83.83s-.41.83-.83.83Zm14.04 10.7h-46.78a.82.82 0 0 1-.83-.84c0-.52.31-.83.83-.83h46.78c.41 0 .83.31.83.83s-.42.84-.83.84Zm-.01 10.69h-28.58a.82.82 0 0 1-.84-.83c0-.52.32-.83.84-.83h28.58c.42 0 .83.31.83.83s-.41.83-.83.83Zm-40.01 0h-6.76a.82.82 0 0 1-.83-.83c0-.52.31-.83.83-.83h6.76c.41 0 .83.31.83.83s-.42.83-.83.83Zm40.02 10.69h-46.78a.82.82 0 0 1-.83-.83c0-.52.31-.83.83-.83h46.78c.41 0 .83.31.83.83s-.42.83-.83.83Zm-.01 10.8h-7.8a.82.82 0 0 1-.83-.83c0-.52.32-.83.84-.83h7.8c.4 0 .82.31.82.83s-.41.83-.83.83Zm-20.26 0h-26.51a.82.82 0 0 1-.83-.83c0-.52.31-.83.83-.83h26.5c.42 0 .84.31.84.83s-.42.83-.83.83Z" />
  <path fill="hsl(var(--black))" d="m217.54 189.23 27.24-16.72.52 30.63-27.76-13.91Z" />
  <path fill="hsl(var(--primary))"
    d="M247.06 230.56a.8.8 0 0 1-.52-.21.81.81 0 0 1 0-1.14l9.98-9.97a.82.82 0 0 1 1.14 0 .8.8 0 0 1 0 1.14l-9.98 9.97c-.2.1-.41.2-.62.2Z" />
  <path fill="hsl(var(--primary))"
    d="M257.15 230.56a.8.8 0 0 1-.52-.21l-9.98-9.97a.81.81 0 0 1 0-1.14.82.82 0 0 1 1.14 0l9.98 9.97c.31.3.31.83 0 1.14-.3.1-.41.2-.62.2ZM161.1 22.9a.8.8 0 0 1-.51-.2.82.82 0 0 1 0-1.14l9.98-9.97a.82.82 0 0 1 1.14 0c.31.31.31.83 0 1.14l-9.98 9.97c-.2.1-.41.2-.62.2Z" />
  <path fill="hsl(var(--primary))"
    d="M171.2 22.9a.8.8 0 0 1-.52-.2l-9.98-9.97a.81.81 0 0 1 0-1.14.82.82 0 0 1 1.14 0l9.98 9.97c.31.3.31.83 0 1.14-.31.1-.42.2-.62.2Z" />
  <path fill="hsl(var(--black))" d="M287.91 104.2h-4.16v50.25h4.16v-50.26Z" />
  <path fill="hsl(var(--secondary))" d="M141.35 20.6a3.74 3.74 0 1 0 0-7.48 3.74 3.74 0 0 0 0 7.48Z" />
  <path fill="hsl(var(--white))" d="M141.35 32.13a2.9 2.9 0 1 0 0-5.82 2.9 2.9 0 0 0 0 5.82Z" />
  <path fill="hsl(var(--black))"
    d="M141.35 27.15a2.2 2.2 0 0 1 2.18 2.18c0 1.24-.94 2.18-2.18 2.18a2.13 2.13 0 0 1-2.19-2.18 2.2 2.2 0 0 1 2.19-2.18Zm0-1.56a3.72 3.72 0 0 0-3.75 3.74 3.72 3.72 0 0 0 3.75 3.74 3.72 3.72 0 0 0 3.74-3.74 3.72 3.72 0 0 0-3.74-3.74Zm69.55 191.47h-46.78a.82.82 0 0 1-.84-.84c0-.51.32-.83.84-.83h46.77c.42 0 .83.32.83.84 0 .51-.3.83-.83.83Zm-.01 10.8h-8.11a.82.82 0 0 1-.83-.84c0-.51.31-.83.83-.83h8.1c.42 0 .84.32.84.84 0 .51-.31.83-.83.83Zm-14.65 0h-32.12a.82.82 0 0 1-.84-.84c0-.51.32-.83.84-.83h32.12c.41 0 .83.32.83.84 0 .51-.42.83-.83.83Zm-24.84-94.9a25.44 25.44 0 0 0-4.06-2.91c-12.06-6.85-27.75-4.88-35.03 6.33-8.63 13.3-27.03 12.25-27.03 12.25s30.36 32.4 39.09 44.96c0 0 8.94-8.3 17.04-17.34-1.55 5.82-3.42 12.57-4.78 17.34-.2.73-.41 1.46-.62 2.08 12.27 8.62 28.17 5.92 36.17-6.54 14.24-22.43-11.12-48.07-20.79-56.17Zm-6.87 39.66a86.53 86.53 0 0 0 7.38-9.86c1.67 1.45 2.91 2.9 3.23 4.46 1.76 7.27-5.4 7.9-10.6 5.4Z" />
  <path fill="hsl(var(--black))"
    d="M171.29 201.48a27.32 27.32 0 0 1-15.8-5.19l-.42-.31.21-.52c.2-.62.42-1.35.63-2.08 1.14-3.84 2.49-8.82 3.84-13.8l.1-.53c-7.38 8.1-14.86 14.96-14.96 15.06l-.63.62-.52-.72c-8.63-12.36-38.77-44.55-39.08-44.96l-1.35-1.46 1.97.1c.21 0 18.09.84 26.3-11.83 7.17-11.11 23.08-14.02 36.07-6.65a21.5 21.5 0 0 1 4.16 3.02c6.23 5.3 36.48 32.7 20.9 57.2-3.85 6.03-9.78 10.18-16.54 11.43a19.1 19.1 0 0 1-4.88.62Zm-14.45-6.12c5.82 3.94 12.58 5.4 19.02 4.04a23.78 23.78 0 0 0 15.49-10.8c14.87-23.35-14.55-50.04-20.58-55.13a19.14 19.14 0 0 0-3.95-2.8c-12.37-6.96-27.34-4.36-34 6.12-7.16 11.12-20.88 12.46-25.87 12.57 5.71 6.12 29.2 31.56 37.42 42.98 2.18-2.07 9.56-9.13 16.32-16.71l2.18-2.5L161 180c-1.35 4.88-2.7 9.97-3.85 13.8 0 .53-.1 1.05-.31 1.57Zm13.2-20.67a13.7 13.7 0 0 1-5.82-1.35l-.94-.41.63-.73a77.57 77.57 0 0 0 7.27-9.76l.53-.83.72.62c1.35 1.25 3.02 2.91 3.54 4.88.83 3.53-.32 5.4-1.46 6.34a8.03 8.03 0 0 1-4.47 1.24Zm-4.26-2.38c3.01 1.14 6.13 1.03 7.7-.21 1.14-.94 1.45-2.6.93-4.78-.21-1.04-.94-2.07-2.4-3.42a78.3 78.3 0 0 1-6.23 8.4Zm12.78-62.2c2.4 2.18 5.1 5.2 8.53 5.5 3.12.31 5.5-1.76 8.21-3a18.53 18.53 0 0 1 13.93-.94c9.98 3.22 13.3 14.22 5.5 21.8-6.96 6.65-17.66 8.3-26.7 5.71-8.74-2.6-18.61-10.7-16.32-20.87.2-.83.62-1.56 1.14-2.18-2.7-3.84 2.08-9.55 5.72-6.02Z" />
  <path fill="hsl(var(--white))"
    d="M184.39 120.9c-.63-.3-1.25-.51-1.98-.72v-.1c1.66-8.1-2.9-16-10.29-17.45-7.38-1.45-14.55 3.95-16.22 12.05-1.66 8.1-.2 16.2 10.3 17.44 3.43.42 6.96-.52 9.87-2.49 3.12 2.28 7.17 1.66 9.67-.2 2.8-2.19 2.6-6.44-1.35-8.52Z" />
  <path fill="hsl(var(--black))"
    d="M167.75 132.95c-.52 0-1.14 0-1.66-.1-4.16-.52-7.28-2.08-9.25-4.67-2.29-3.22-2.91-7.79-1.67-13.6a16.48 16.48 0 0 1 6.34-10.08 13.67 13.67 0 0 1 10.81-2.6c3.75.73 6.97 3.12 9.05 6.55a16.51 16.51 0 0 1 1.97 11.11c.52.2 1.04.41 1.46.62 2.18 1.14 3.53 3.01 3.64 5.09a5.4 5.4 0 0 1-2.19 4.78c-2.5 1.87-6.65 2.8-10.18.52a16.34 16.34 0 0 1-8.32 2.38Zm1.87-29.8c-2.6 0-5.1.83-7.38 2.5a15.45 15.45 0 0 0-5.72 9.13c-1.14 5.4-.62 9.56 1.46 12.46 1.66 2.29 4.37 3.64 8.1 4.05 3.23.42 6.56-.41 9.36-2.38l.42-.32.41.31c2.91 2.19 6.55 1.46 8.74-.2a3.75 3.75 0 0 0 1.56-3.43c-.1-1.56-1.15-2.9-2.81-3.84a7.78 7.78 0 0 0-1.87-.73l-.73-.2.1-.84c.73-3.73.21-7.58-1.66-10.7a11.9 11.9 0 0 0-8-5.8h-1.98Z" />
  <path fill="hsl(var(--black))"
    d="M161.67 103.09c-7.14-5.57 3.85-10.59 11.1-2.51 7.93 1.53 13.03 9.71 11.22 18.34 0 .1-.12.33-.12.44-1.13-.44-5.66-1.75-8.38-6.45-5.32-2.72-11.44-9.38-13.82-9.82Zm4.81 14.79a1.04 1.04 0 1 0-.4-2.04 1.04 1.04 0 0 0 .4 2.04Zm-8.39 1.78a23.04 23.04 0 0 1 3.22-6.12c.42-.52 1.25 0 .83.62a22.73 22.73 0 0 0-3.01 5.92c-.31.52-1.25.2-1.04-.42Zm19.74 4.88a5.31 5.31 0 0 1 6.55 0c.52.42-.1 1.25-.62.83a4.23 4.23 0 0 0-5.3-.1c-.53.42-1.15-.31-.63-.73Zm73.6-68.74H130.85a.82.82 0 0 1-.83-.83c0-.51.31-.83.83-.83h120.47c.42 0 .84.32.84.83 0 .52-.32.84-.73.84Z" />
  <path fill="hsl(var(--black))"
    d="M135.74 193.07c-.21 0-.31 0-.52-.2-.31-.32-.42-.73-.1-1.15L238.95 54.46c.2-.32.72-.42 1.14-.1.31.3.41.72.1 1.13L136.36 192.76c-.1.2-.31.31-.62.31Z" />
  <path fill="hsl(var(--white))"
    d="M161 175.21c-1.15-4.88-3.43-9.76-8.94-8-.1 0-.2.11-.2.11-.22-.2-.53-.31-.74-.41-3.84-2.19-4.78 1.34-4.67 2.38-2.6.52-4.37 3.33-3.85 5.4-5.2 4.26-1.04 10.18 2.7 11.74.63.2 1.15.1 1.67-.32.2.42.3.73.41 1.25.63 3.74 6.34 5.71 9.25 6.23 1.46-4.98 3.33-12.05 5-17.96-.22-.1-.42-.21-.63-.42Z" />
  <path fill="hsl(var(--black))"
    d="m157.15 194.42-.73-.1c-3.12-.52-9.15-2.6-9.88-6.85 0-.1 0-.21-.1-.32a2 2 0 0 1-1.56-.1c-2.39-1.04-5.1-3.74-5.61-6.96-.21-1.55 0-3.74 2.39-5.81-.1-1.04.2-2.18.83-3.22a6.11 6.11 0 0 1 3.12-2.5 3.9 3.9 0 0 1 1.56-2.8c.83-.51 2.18-.93 4.26.32.1.1.31.2.41.3a6.1 6.1 0 0 1 5.1.42c2.08 1.25 3.64 3.84 4.68 8 .1.1.2.1.3.2l.53.32-1.25 4.67c-1.35 4.98-2.7 10.07-3.85 13.91l-.2.52Zm-9.88-9.55.42.93c.2.42.3.94.41 1.35.52 2.91 4.78 4.78 7.9 5.5 1.04-3.73 2.4-8.5 3.64-13.18l.94-3.53s-.1 0-.1-.1l-.22-.21-.1-.31c-.94-3.95-2.18-6.23-3.95-7.27-1.14-.63-2.39-.73-4.05-.2l-.63.2-.3-.2a2.03 2.03 0 0 0-.63-.42c-1.15-.63-1.98-.73-2.6-.32-.73.52-.94 1.66-.94 1.98l.1.72-.62.21c-1.04.2-2.07.94-2.7 1.97-.52.83-.73 1.77-.52 2.5l.1.51-.41.32c-1.66 1.35-2.4 2.9-2.08 4.67.31 2.6 2.7 4.88 4.68 5.71.1 0 .41.2.93-.2l.73-.63Z" />
  <path fill="hsl(var(--black))"
    d="M157.78 172.82a11.14 11.14 0 0 0-5.62-5.5c-.62-.31-1.14.62-.52.93a10.96 10.96 0 0 1 5.3 5.1c.21.62 1.15.1.84-.53Zm-7.38-1.45a4.08 4.08 0 0 0-2.6-1.66c-.63-.1-.94.83-.32 1.04.73.1 1.46.52 1.98 1.14.41.52 1.35 0 .93-.52Zm-3.33 5.82a6.12 6.12 0 0 0-3.12-2.5c-.62-.2-.93.73-.31 1.04a5.67 5.67 0 0 1 2.6 2.08c.31.52 1.25 0 .83-.63Zm.31 7.89c-1.25-1.66-3.02-2.8-4.78-3.84-.52-.32-1.15.51-.52.93 1.66 1.04 3.32 2.08 4.57 3.64.42.51 1.14-.21.73-.73Z" />
  <path fill="hsl(var(--white))"
    d="M113.39 148.32c-.63 0-1.36 0-1.98-.1-.41 0-.73-.42-.73-.83 0-.42.42-.73.83-.73 11.13 1.25 19.75-9.55 24.33-15.47.3-.31.72-.41 1.14-.1.31.3.42.72.1 1.14-4.47 5.7-12.68 16.1-23.7 16.1Z" />
  <path fill="hsl(var(--black))"
    d="m155.66 164.68-3 3.98 1.24.94 3-3.98-1.24-.94Zm-12.6 16.72-2.19 2.9 1.25.94 2.19-2.9-1.25-.94Zm26.98-6.7c-2.7 0-5.62-1.04-7.8-2.5a.8.8 0 0 1-.2-1.03c.2-.32.72-.42 1.03-.21 3.22 2.28 7.9 2.9 10.09 1.35 1.35-.94 1.76-2.6 1.14-4.99-.1-.41.2-.83.62-.93.42-.1.83.1.94.62.93 3.84-.52 5.71-1.77 6.65a7.61 7.61 0 0 1-4.05 1.03Z" />
  <path fill="hsl(var(--white))" d="M162.66 171.58c-.31 1.24-.73 2.6-1.14 4.05l1.14-4.05Z" />
  <path fill="hsl(var(--black))"
    d="m162.35 175.84-1.46-.42c.42-1.45.73-2.8 1.15-4.05l1.45.42c-.41 1.24-.83 2.6-1.14 4.05Z" />
</svg>