<svg xmlns="http://www.w3.org/2000/svg" fill="none" viewBox="0 0 56 57"><path fill="#0050DC" d="M55.96 50.34V7.12c0-3.5-2.8-6.37-6.31-6.37H6.81A6.37 6.37 0 0 0 .5 7.12c0 .62.26 1.21.7 1.66l6.96 7.03c.55.55 1.43.55 1.94 0l9.92-10.02a4.4 4.4 0 0 1 6.24 0 4.45 4.45 0 0 1 .15 6.11l-.15.15-10.95 11.01-9.41 9.5c-.1.11-.22.22-.3.33a4.5 4.5 0 0 0 .3 5.97 4.39 4.39 0 0 0 5.91.29c.11-.11.22-.18.33-.3l9.41-9.5 5.04-5.07a4.4 4.4 0 0 1 5.91.29 4.49 4.49 0 0 1 .3 5.96l-5.04 5.09-9.42 9.5a4.5 4.5 0 0 0 0 6.3 4.39 4.39 0 0 0 5.91.28c.11-.1.22-.18.33-.29l9.42-9.5 10.87-10.97.15-.15a4.36 4.36 0 0 1 6.2.3 4.6 4.6 0 0 1-.26 6.26l-9.78 9.86a1.36 1.36 0 0 0 0 1.95l6.83 6.89c.44.44 1.02.7 1.64.7a6.38 6.38 0 0 0 6.31-6.4Z"/></svg>