<svg xmlns="http://www.w3.org/2000/svg" fill="none" viewBox="0 0 326 40"><path fill="#06C2FD" d="m196.11 17.23-1.45 1.52a7.4 7.4 0 0 0-5.41-2.3c-4.04 0-7.12 3.17-7.12 7.5 0 4.34 3.08 7.48 7.12 7.48 2.17 0 4.07-.93 5.47-2.31l1.4 1.54a8.96 8.96 0 0 1-6.81 2.89c-5.55 0-9.45-4.12-9.45-9.6 0-5.48 3.9-9.62 9.45-9.62a8.93 8.93 0 0 1 6.8 2.9ZM218.8 23.95c0 5.48-4.13 9.6-9.6 9.6a9.35 9.35 0 0 1-9.57-9.6c0-5.48 4.1-9.62 9.56-9.62a9.41 9.41 0 0 1 9.61 9.62Zm-16.9 0c0 4.34 3.16 7.48 7.3 7.48 4.13 0 7.3-3.15 7.3-7.48 0-4.32-3.15-7.5-7.3-7.5-4.17 0-7.3 3.17-7.3 7.5ZM241.04 21.84v11.41h-2.23V22.53c0-3.76-2.16-6.05-5.92-6.05a5.98 5.98 0 0 0-6.17 6.17v10.6h-2.24V14.64h2.22v3.26c1.45-2.5 4.04-3.57 6.59-3.57 4.63 0 7.77 2.9 7.77 7.5h-.02ZM260.17 16.7h-8.51v10.14c0 3.15 1.64 4.59 4.1 4.59 1.59 0 3.03-.55 4.12-1.43l1.05 1.68a8.18 8.18 0 0 1-5.35 1.86c-3.85 0-6.16-2.16-6.16-6.67V16.68h-4.23v-2.05h4.23V8.55h2.24v6.08h8.5V16.69ZM282.58 33.25h-2.21v-3.57a8.33 8.33 0 0 1-7.32 3.88c-5.17 0-9.22-4.06-9.22-9.6s4.05-9.62 9.22-9.62a8.37 8.37 0 0 1 7.32 3.88v-3.58h2.21v18.62Zm-16.47-9.3c0 4.2 3 7.48 7.2 7.48s7.18-3.2 7.18-7.48c0-4.26-3-7.5-7.18-7.5s-7.2 3.29-7.2 7.5Zm5.2-12.1 4.3-5.94h2.83l-4.92 5.94h-2.22ZM308.45 23.95c0 5.54-4.05 9.6-9.24 9.6a8.25 8.25 0 0 1-7.27-3.84v3.54h-2.24V4.77h2.24v13.41a8.29 8.29 0 0 1 7.27-3.84c5.2 0 9.24 4.08 9.24 9.62Zm-16.66 0c0 4.28 3.01 7.48 7.17 7.48 4.17 0 7.2-3.29 7.2-7.48s-2.98-7.5-7.2-7.5c-4.2 0-7.17 3.23-7.17 7.5ZM316.85 7.95c0 .91-.71 1.6-1.62 1.6-.9 0-1.58-.7-1.58-1.6 0-.9.68-1.64 1.58-1.64s1.62.73 1.62 1.64Zm-.49 25.3h-2.23V14.64h2.23v18.61ZM325.71 33.25h-2.23V4.77h2.23v28.48Z"/><path fill="#0050DC" d="M39.63 35.44V4.56A4.54 4.54 0 0 0 35.11 0H4.51A4.55 4.55 0 0 0 0 4.56c0 .44.17.87.49 1.18l4.98 5.02c.38.4 1 .4 1.39 0l7.08-7.15a3.13 3.13 0 0 1 4.45 0 3.18 3.18 0 0 1 .1 4.37l-.11.1-7.78 7.85-6.74 6.8-.21.24a3.2 3.2 0 0 0 .21 4.26 3.12 3.12 0 0 0 4.22.22c.08-.07.17-.14.23-.22l6.74-6.8 3.6-3.63a3.12 3.12 0 0 1 4.22.22 3.2 3.2 0 0 1 .21 4.26l-3.6 3.63-6.73 6.8a3.2 3.2 0 0 0 0 4.5 3.13 3.13 0 0 0 4.22.21l.24-.21 6.73-6.8 7.78-7.85.1-.12a3.13 3.13 0 0 1 4.45.22 3.29 3.29 0 0 1-.2 4.47l-7 7.06a1 1 0 0 0 0 1.4l4.88 4.92c.31.3.74.49 1.17.49 2.5 0 4.52-2.04 4.52-4.56ZM59.02 12.9c-4.9 0-9.43 4.1-9.43 10.28 0 6.62 4.66 10.48 9.91 10.48 4.66 0 7.73-2.77 8.76-6.19l-3.9-1.25c-.65 1.93-2.08 3.42-4.87 3.42a5.26 5.26 0 0 1-5.3-5.1h14.18c.04-.08.12-.72.12-1.49 0-6.19-3.5-10.16-9.47-10.16Zm-4.7 8.23a4.67 4.67 0 0 1 4.75-4.34c3.18 0 4.7 2.05 4.77 4.34h-9.51ZM94.92 12.9c-2.55 0-4.86.9-6.4 3.5-1.04-2.32-3.31-3.5-5.9-3.5-2.23 0-4.7 1.06-5.83 3.1v-2.53h-4.5v19.9h4.66v-11.8c0-2.54 1.58-4.42 4.1-4.42 2.66 0 3.8 1.8 3.8 4.08v12.14h4.6v-11.8c0-2.46 1.63-4.42 4.1-4.42 2.63 0 3.8 1.75 3.8 4.08v12.14h4.54V20.46c0-5.27-3.4-7.56-6.97-7.56ZM108.22 6.34a3.08 3.08 0 0 0-3.04 3.1 3.04 3.04 0 0 0 3.04 3.07 3.08 3.08 0 0 0 0-6.17ZM110.57 13.47h-4.66v19.9h4.66v-19.9ZM162 23.06c0-6.19-3.5-10.16-9.47-10.16-4.9 0-9.43 4.1-9.43 10.28 0 6.62 4.66 10.48 9.9 10.48 4.66 0 7.73-2.77 8.77-6.19l-3.91-1.25c-.64 1.93-2.07 3.42-4.86 3.42a5.26 5.26 0 0 1-5.3-5.1h14.18c.04-.08.12-.72.12-1.49Zm-14.17-1.93a4.67 4.67 0 0 1 4.74-4.34c3.18 0 4.7 2.05 4.78 4.34h-9.52ZM136.44 26.91v-9.23h4.1v-4.2h-4.1V6.74h-4.66v6.72h-8.16V6.75h-4.65v6.72h-4.36v4.4h4.36v9.83c0 3.71 2.27 5.92 5.9 5.92 1.7 0 2.6-.32 2.88-.44v-3.93c-.2.05-.97.17-1.62.17-1.74 0-2.5-.73-2.5-2.5V17.7h8.16V27.7c0 3.72 2.26 5.93 5.9 5.93 1.7 0 2.6-.32 2.88-.44v-3.93c-.2.05-.97.17-1.62.17-1.74 0-2.51-.74-2.51-2.5v-.02Z"/></svg>