<svg xmlns="http://www.w3.org/2000/svg" fill="none" viewBox="0 0 228 28"><path fill="#06C2FD" d="m137.28 12.06-1.02 1.06a5.18 5.18 0 0 0-3.79-1.6c-2.83 0-4.98 2.21-4.98 5.25 0 3.03 2.15 5.23 4.98 5.23 1.53 0 2.86-.65 3.84-1.62l.97 1.08a6.27 6.27 0 0 1-4.77 2.02c-3.88 0-6.6-2.88-6.6-6.71 0-3.84 2.73-6.74 6.6-6.74 1.92 0 3.62.73 4.77 2.03ZM153.16 16.77c0 3.83-2.9 6.71-6.72 6.71a6.55 6.55 0 0 1-6.7-6.71 6.56 6.56 0 0 1 6.7-6.74c3.82 0 6.72 2.9 6.72 6.74Zm-11.83 0c0 3.03 2.21 5.23 5.1 5.23 2.9 0 5.13-2.2 5.13-5.23 0-3.03-2.21-5.25-5.13-5.25a5.04 5.04 0 0 0-5.1 5.25ZM168.73 15.29v7.99h-1.56v-7.5c0-2.64-1.51-4.25-4.15-4.25a4.19 4.19 0 0 0-4.32 4.32v7.43h-1.56V10.24h1.55v2.29a5.17 5.17 0 0 1 4.61-2.5c3.24 0 5.44 2.03 5.44 5.26h-.01ZM182.12 11.68h-5.96v7.11c0 2.2 1.15 3.21 2.87 3.21 1.11 0 2.13-.38 2.88-1l.74 1.18c-.91.77-2.2 1.3-3.74 1.3-2.7 0-4.31-1.51-4.31-4.67v-7.13h-2.97v-1.44h2.97V5.99h1.56v4.25h5.96v1.44ZM197.8 23.28h-1.54v-2.5a5.83 5.83 0 0 1-5.12 2.7c-3.63 0-6.46-2.83-6.46-6.7 0-3.89 2.83-6.74 6.46-6.74 2.34 0 4.07 1.1 5.12 2.72v-2.5h1.55v13.02Zm-11.52-6.51c0 2.94 2.1 5.23 5.03 5.23 2.94 0 5.03-2.25 5.03-5.23 0-2.99-2.1-5.25-5.03-5.25-2.92 0-5.03 2.3-5.03 5.25Zm3.63-8.48 3.02-4.15h1.98l-3.45 4.15h-1.55ZM215.91 16.77c0 3.88-2.83 6.71-6.46 6.71a5.78 5.78 0 0 1-5.1-2.68v2.48h-1.56V3.34h1.57v9.39a5.8 5.8 0 0 1 5.09-2.69c3.63 0 6.46 2.85 6.46 6.73Zm-11.66 0c0 3 2.11 5.23 5.03 5.23 2.9 0 5.03-2.3 5.03-5.23 0-2.94-2.09-5.25-5.03-5.25-2.95 0-5.03 2.25-5.03 5.25ZM221.8 5.57c0 .63-.5 1.12-1.14 1.12a1.1 1.1 0 0 1-1.1-1.12c0-.64.47-1.16 1.1-1.16.64 0 1.13.52 1.13 1.16Zm-.35 17.7h-1.56V10.25h1.56v13.04ZM228 23.28h-1.56V3.34H228v19.94Z"/><path fill="#fff" d="M27.74 24.8V3.2c0-1.77-1.41-3.2-3.16-3.2H3.16A3.18 3.18 0 0 0 0 3.2c0 .3.12.6.34.82l3.49 3.51c.26.28.7.28.97 0l4.96-5a2.2 2.2 0 0 1 3.11 0c.84.84.86 2.2.08 3.06l-.09.07-5.44 5.5L2.7 15.9a2.24 2.24 0 0 0 0 3.15c.82.82 2.1.87 2.96.15l.16-.15 4.72-4.76 2.51-2.54a2.19 2.19 0 0 1 2.96.15c.8.82.86 2.11.15 2.98l-2.52 2.55-4.72 4.75-.15.17c-.7.88-.65 2.16.15 2.98.8.82 2.1.87 2.96.15l.17-.15 4.71-4.75 5.44-5.5.08-.08a2.2 2.2 0 0 1 3.1.15c.8.9.71 2.28-.13 3.13l-4.9 4.94a.7.7 0 0 0 0 .98l3.42 3.45c.21.21.51.34.82.34a3.18 3.18 0 0 0 3.16-3.2ZM41.32 9.03c-3.43 0-6.6 2.87-6.6 7.2 0 4.63 3.25 7.33 6.93 7.33 3.26 0 5.4-1.94 6.13-4.33l-2.73-.87c-.45 1.35-1.45 2.39-3.4 2.39a3.68 3.68 0 0 1-3.71-3.57h9.92c.03-.06.08-.5.08-1.04 0-4.34-2.45-7.12-6.63-7.12Zm-3.3 5.76a3.27 3.27 0 0 1 3.33-3.03c2.22 0 3.29 1.43 3.34 3.03h-6.66ZM66.45 9.03c-1.79 0-3.4.63-4.48 2.46-.73-1.64-2.32-2.46-4.14-2.46-1.56 0-3.29.74-4.08 2.17V9.43H50.6v13.93h3.26V15.1c0-1.77 1.1-3.09 2.87-3.09 1.87 0 2.66 1.26 2.66 2.86v8.5h3.23V15.1c0-1.71 1.13-3.09 2.86-3.09 1.85 0 2.67 1.23 2.67 2.86v8.5h3.17v-9.04c0-3.69-2.38-5.3-4.87-5.3ZM75.75 4.44c-1.16 0-2.12.97-2.12 2.17s.96 2.15 2.12 2.15a2.16 2.16 0 0 0 0-4.32ZM77.4 9.43h-3.26v13.93h3.26V9.43ZM113.4 16.14c0-4.33-2.45-7.11-6.63-7.11-3.42 0-6.6 2.87-6.6 7.2 0 4.63 3.26 7.33 6.94 7.33 3.25 0 5.4-1.94 6.13-4.33l-2.74-.87c-.44 1.35-1.45 2.39-3.4 2.39a3.68 3.68 0 0 1-3.7-3.57h9.91c.03-.06.09-.5.09-1.04Zm-9.92-1.35a3.27 3.27 0 0 1 3.32-3.03c2.23 0 3.29 1.43 3.34 3.03h-6.66ZM95.5 18.84v-6.46h2.87V9.43h-2.86v-4.7h-3.26v4.7h-5.71v-4.7h-3.26v4.7h-3.05v3.08h3.05v6.88c0 2.6 1.59 4.15 4.13 4.15 1.2 0 1.82-.23 2.02-.32v-2.74c-.15.03-.68.11-1.14.11-1.22 0-1.75-.51-1.75-1.74v-6.47h5.7v7.01c0 2.6 1.6 4.15 4.15 4.15 1.18 0 1.81-.23 2-.31v-2.75c-.14.03-.67.12-1.13.12-1.21 0-1.75-.51-1.75-1.75v-.01Z"/></svg>