<svg width="40" height="41" viewBox="0 0 40 41" fill="none" xmlns="http://www.w3.org/2000/svg">
<path d="M33.684 18.7437C31.3987 18.533 29.1133 18.4229 26.828 18.347C26.1099 18.3223 25.3936 18.3034 24.6754 18.2863C25.1719 17.7662 25.6645 17.2442 26.1553 16.7184C27.7187 15.0461 29.2555 13.3492 30.7241 11.582C31.1769 11.0372 31.1921 10.2286 30.7241 9.66293C30.1954 9.02514 29.2498 8.93783 28.615 9.46742C26.8508 10.9366 25.1567 12.4779 23.4872 14.0439C22.9623 14.5336 22.4412 15.029 21.922 15.5264C21.905 14.8069 21.8879 14.0894 21.8614 13.37C21.7856 11.0809 21.6757 8.79167 21.4653 6.50248C21.4009 5.79637 20.8419 5.21363 20.1104 5.1453C19.2861 5.06937 18.5566 5.67678 18.4808 6.50248C18.2704 8.79167 18.1605 11.0809 18.0847 13.37C18.0601 14.0875 18.0412 14.8069 18.0241 15.5245C17.5049 15.0271 16.9857 14.5336 16.4608 14.0439C14.7913 12.4779 13.0972 10.9385 11.3311 9.46931C10.7873 9.01565 9.98193 9.00047 9.41723 9.46931C8.78053 9.9989 8.69336 10.9442 9.22205 11.582C10.6887 13.3511 12.2255 15.048 13.7889 16.7203C14.2778 17.2461 14.7705 17.7662 15.265 18.2844C14.5488 18.2996 13.8325 18.3185 13.1162 18.3451C10.8309 18.4192 8.54555 18.5311 6.26024 18.7437C5.55532 18.8083 4.97547 19.3682 4.90725 20.099C4.83145 20.9247 5.43594 21.6555 6.26024 21.7314C8.54555 21.944 10.8309 22.0541 13.1162 22.1301C13.8325 22.1547 14.5488 22.1737 15.265 22.1908C14.7705 22.709 14.2759 23.231 13.7889 23.7549C12.2255 25.4272 10.6887 27.1241 9.22205 28.8932C8.76916 29.438 8.754 30.2447 9.22205 30.8104C9.75074 31.4481 10.6944 31.5355 11.3311 31.0059C13.0972 29.5367 14.7913 27.9973 16.4608 26.4313C16.9857 25.9416 17.5049 25.448 18.0222 24.9526C18.0374 25.6701 18.0563 26.3876 18.0828 27.1051C18.1567 29.3943 18.2685 31.6835 18.4808 33.9727C18.5452 34.6788 19.1042 35.2597 19.8338 35.328C20.6581 35.4039 21.3876 34.7984 21.4634 33.9727C21.6757 31.6835 21.7856 29.3943 21.8614 27.1051C21.886 26.3876 21.905 25.6682 21.922 24.9507C22.4393 25.4462 22.9604 25.9416 23.4853 26.4313C25.1548 27.9973 26.8489 29.5367 28.6131 31.0078C29.1569 31.4614 29.9642 31.4766 30.5289 31.0078C31.1656 30.4782 31.2527 29.531 30.7241 28.8951C29.2574 27.1279 27.7187 25.431 26.1553 23.7587C25.6664 23.2329 25.1719 22.7109 24.6754 22.1908C25.3936 22.1737 26.1099 22.1566 26.828 22.1301C29.1133 22.0541 31.3987 21.944 33.684 21.7333C34.3889 21.6688 34.9706 21.1089 35.0389 20.3762C35.1147 19.5505 34.5083 18.8197 33.684 18.7437Z" fill="#FF005A"/>
<path d="M19.9664 3.4977C20.8623 3.4977 21.5885 2.77024 21.5885 1.87287C21.5885 0.975507 20.8623 0.248047 19.9664 0.248047C19.0706 0.248047 18.3443 0.975507 18.3443 1.87287C18.3443 2.77024 19.0706 3.4977 19.9664 3.4977Z" fill="#FF005A"/>
<path d="M19.9664 40.248C20.8623 40.248 21.5885 39.5206 21.5885 38.6232C21.5885 37.7259 20.8623 36.9984 19.9664 36.9984C19.0706 36.9984 18.3443 37.7259 18.3443 38.6232C18.3443 39.5206 19.0706 40.248 19.9664 40.248Z" fill="#FF005A"/>
<path d="M1.99514 21.8265C2.86698 21.6203 3.40686 20.7451 3.20099 19.8718C2.99512 18.9985 2.12147 18.4577 1.24963 18.6639C0.377791 18.8701 -0.162088 19.7453 0.0437785 20.6186C0.249645 21.4919 1.1233 22.0327 1.99514 21.8265Z" fill="#FF005A"/>
<path d="M38.3095 21.8738C39.2054 21.8738 39.9316 21.1464 39.9316 20.249C39.9316 19.3516 39.2054 18.6242 38.3095 18.6242C37.4137 18.6242 36.6875 19.3516 36.6875 20.249C36.6875 21.1464 37.4137 21.8738 38.3095 21.8738Z" fill="#FF005A"/>
<path d="M6.99549 8.879C7.89134 8.879 8.61756 8.15154 8.61756 7.25417C8.61756 6.3568 7.89134 5.62934 6.99549 5.62934C6.09964 5.62934 5.37341 6.3568 5.37341 7.25417C5.37341 8.15154 6.09964 8.879 6.99549 8.879Z" fill="#FF005A"/>
<path d="M32.9374 34.8668C33.8332 34.8668 34.5594 34.1393 34.5594 33.2419C34.5594 32.3446 33.8332 31.6171 32.9374 31.6171C32.0415 31.6171 31.3153 32.3446 31.3153 33.2419C31.3153 34.1393 32.0415 34.8668 32.9374 34.8668Z" fill="#FF005A"/>
<path d="M6.99549 34.8668C7.89134 34.8668 8.61756 34.1393 8.61756 33.2419C8.61756 32.3446 7.89134 31.6171 6.99549 31.6171C6.09964 31.6171 5.37341 32.3446 5.37341 33.2419C5.37341 34.1393 6.09964 34.8668 6.99549 34.8668Z" fill="#FF005A"/>
<path d="M32.9374 8.879C33.8332 8.879 34.5594 8.15154 34.5594 7.25417C34.5594 6.3568 33.8332 5.62934 32.9374 5.62934C32.0415 5.62934 31.3153 6.3568 31.3153 7.25417C31.3153 8.15154 32.0415 8.879 32.9374 8.879Z" fill="#FF005A"/>
</svg>
