<svg xmlns="http://www.w3.org/2000/svg" fill="none" viewBox="0 0 641 102"><path fill="#FF005A" d="M163.126 91.283c0 2.853-.999 5.275-2.998 7.273-1.994 1.994-4.42 2.993-7.273 2.993-2.854 0-5.275-.999-7.274-2.993-1.993-1.998-2.993-4.424-2.993-7.273V10.415c0-2.853 1-5.28 2.993-7.273 1.999-1.999 4.42-2.998 7.274-2.998 2.853 0 5.279 1 7.273 2.998 1.999 1.994 2.998 4.42 2.998 7.273v80.868Zm62.112-70.601c-8.317 0-15.429 2.948-21.321 8.844-5.896 5.896-8.844 13.003-8.844 21.32 0 8.318 2.948 15.43 8.844 21.326 5.892 5.896 13.004 8.844 21.321 8.844 8.318 0 15.501-2.948 21.393-8.844 5.851-5.896 8.772-13.003 8.772-21.325 0-8.323-2.921-15.425-8.772-21.321-5.892-5.896-13.026-8.844-21.393-8.844Zm35.872-5.703c9.884 9.888 14.831 21.847 14.831 35.868 0 14.02-4.947 25.934-14.831 35.872-9.893 9.888-21.847 14.83-35.872 14.83-14.025 0-25.934-4.942-35.867-14.83-9.893-9.938-14.835-21.897-14.835-35.872 0-13.976 4.942-25.98 14.835-35.868C199.304 5.091 211.263.144 225.238.144c13.975 0 25.979 4.947 35.872 14.835Zm44.64 44.568v21.465h33.307c4.041 0 7.201-1 9.483-2.993 1.998-1.805 2.998-4.02 2.998-6.635-.05-2.853-1.166-5.464-3.349-7.845-2.431-2.66-5.469-3.992-9.128-3.992H305.75Zm0-38.865v21.464h33.307c3.47-.045 6.274-1.233 8.412-3.564 1.904-2.04 2.876-4.542 2.925-7.485 0-2.854-.927-5.253-2.777-7.206-2.043-2.143-4.901-3.21-8.556-3.21H305.75ZM339.057.144c10.077 0 18.039 3.092 23.886 9.272 5.23 5.608 7.845 12.503 7.845 20.677 0 9.222-3.542 16.185-10.622 20.893 8.083 5.374 12.143 12.819 12.193 22.32 0 7.606-2.782 14.074-8.345 19.399-6.13 5.896-14.448 8.84-24.957 8.84h-43.578c-2.849 0-5.275-1-7.273-2.993-1.994-1.999-2.994-4.425-2.994-7.274V10.415c0-2.853 1-5.28 2.994-7.273 1.998-1.999 4.424-2.998 7.273-2.998h43.578ZM85.647 46.935c-5.81-.535-11.62-.814-17.431-1.008a453.97 453.97 0 0 0-5.474-.153 452.176 452.176 0 0 0 3.763-3.979c3.975-4.244 7.886-8.551 11.617-13.039a3.81 3.81 0 0 0-5.365-5.365c-4.488 3.731-8.795 7.643-13.04 11.617a348.963 348.963 0 0 0-3.978 3.763 444.3 444.3 0 0 0-.153-5.473c-.189-5.811-.473-11.622-1.008-17.432a3.81 3.81 0 0 0-7.584 0c-.536 5.81-.815 11.62-1.008 17.432a443.57 443.57 0 0 0-.153 5.468 446.156 446.156 0 0 0-3.975-3.758c-4.244-3.974-8.551-7.886-13.043-11.612a3.816 3.816 0 0 0-4.866 0 3.812 3.812 0 0 0-.5 5.365c3.727 4.492 7.639 8.799 11.613 13.043a521.886 521.886 0 0 0 3.754 3.975c-1.823.04-3.642.09-5.464.153-5.811.189-11.622.472-17.432 1.012a3.81 3.81 0 0 0 0 7.589c5.81.54 11.621.823 17.432 1.012 1.823.063 3.64.113 5.464.154a391.438 391.438 0 0 0-3.754 3.974c-3.974 4.244-7.886 8.552-11.612 13.043a3.816 3.816 0 0 0 0 4.866 3.812 3.812 0 0 0 5.365.5c4.492-3.727 8.799-7.638 13.043-11.613a522.01 522.01 0 0 0 3.975-3.754c.04 1.823.09 3.642.153 5.465.189 5.81.472 11.62 1.012 17.431a3.81 3.81 0 0 0 7.588 0c.54-5.81.825-11.62 1.014-17.431.063-1.823.112-3.646.153-5.47a446.145 446.145 0 0 0 3.974 3.76c4.244 3.974 8.551 7.885 13.039 11.616a3.81 3.81 0 0 0 5.365-5.365c-3.731-4.487-7.642-8.795-11.617-13.04a348.963 348.963 0 0 0-3.763-3.978c1.823-.04 3.65-.09 5.474-.153 5.81-.189 11.62-.473 17.431-1.008a3.811 3.811 0 0 0 0-7.589l-.008-.018Zm1.018-26.244a4.124 4.124 0 0 0 0-5.834 4.124 4.124 0 0 0-5.834 0 4.124 4.124 0 0 0 0 5.834 4.124 4.124 0 0 0 5.834 0ZM14.87 80.823a4.124 4.124 0 0 0 0 5.833 4.124 4.124 0 0 0 5.833 0 4.124 4.124 0 0 0 0-5.834 4.124 4.124 0 0 0-5.833 0Zm65.965 0a4.124 4.124 0 0 0 0 5.833 4.124 4.124 0 0 0 5.833 0 4.124 4.124 0 0 0 0-5.834 4.124 4.124 0 0 0-5.833 0ZM20.7 20.69a4.124 4.124 0 0 0 0-5.834 4.124 4.124 0 0 0-5.834 0 4.124 4.124 0 0 0 0 5.834 4.124 4.124 0 0 0 5.834 0Zm76.713 25.943a4.122 4.122 0 1 0 0 8.245 4.123 4.123 0 1 0 0-8.245Zm-93.29 0a4.122 4.122 0 1 0 0 8.245 4.122 4.122 0 1 0 0-8.245Zm46.643 46.642a4.122 4.122 0 1 0 0 8.246 4.122 4.122 0 1 0 0-8.246Zm0-85.04a4.122 4.122 0 0 0 4.122-4.122c0-2.278-1.697-3.97-3.839-4.114h-.567a4.12 4.12 0 0 0-3.84 4.114c0 2.183 1.846 4.123 4.124 4.123Z"/><path fill="#7D93B8" d="M640.661 34h-21.604V2.408h8.316v24.068h13.288V34Zm-48.984 0-6.776-18.216V34h-7.524V2.408h9.812l7.964 21.428 7.92-21.428h9.812V34h-7.524V15.564L598.541 34h-6.864Zm-39.95 0h-9.812l9.68-16.104-8.536-15.488h9.68l5.236 10.428 5.72-10.428h9.284l-8.888 15.796L573.595 34h-9.856l-5.984-10.868L551.727 34Zm-28.845-10.912V34h-7.524V10.328h6.908v4.18c1.804-2.772 5.544-4.356 9.328-4.356v7.832c-5.324-.528-8.712-.132-8.712 5.104ZM504.598 34v-2.288c-1.672 1.892-3.74 2.728-6.776 2.728-4.928 0-8.228-2.948-8.228-7.436 0-4.62 3.74-7.128 10.516-7.128 1.276 0 2.464.088 3.476.264v-1.144c0-2.068-1.188-3.212-3.3-3.212-2.068 0-3.3 1.144-3.564 3.212h-6.776c.44-5.5 4.532-9.108 10.384-9.108 6.512 0 10.34 3.52 10.34 9.504V34h-6.072Zm-7.92-7.216c0 1.54 1.056 2.464 2.904 2.464 2.508 0 4.004-1.188 4.004-3.124v-1.496c-1.144-.22-2.024-.308-2.992-.308-2.552 0-3.916.836-3.916 2.464Zm-35.366-4.62c0-6.864 4.18-12.276 10.56-12.276 2.464 0 4.576.88 6.424 2.64V2.408h7.524V34h-6.908v-2.684c-1.936 2.024-4.268 3.124-7.04 3.124-6.38 0-10.56-5.5-10.56-12.276Zm7.832 0c0 3.696 2.244 5.5 4.532 5.5 2.332 0 4.532-1.804 4.532-5.544 0-3.784-2.244-5.456-4.532-5.456s-4.532 1.716-4.532 5.5ZM452.047 34v-2.288c-1.672 1.892-3.74 2.728-6.776 2.728-4.928 0-8.228-2.948-8.228-7.436 0-4.62 3.74-7.128 10.516-7.128 1.276 0 2.464.088 3.476.264v-1.144c0-2.068-1.188-3.212-3.3-3.212-2.068 0-3.3 1.144-3.564 3.212h-6.776c.44-5.5 4.532-9.108 10.384-9.108 6.512 0 10.34 3.52 10.34 9.504V34h-6.072Zm-7.92-7.216c0 1.54 1.056 2.464 2.904 2.464 2.508 0 4.004-1.188 4.004-3.124v-1.496c-1.144-.22-2.024-.308-2.992-.308-2.552 0-3.916.836-3.916 2.464ZM416.396 34h-8.316V2.408h12.936c8.536 0 13.42 3.828 13.42 10.56 0 4.048-2.42 7.392-6.688 9.196L435.492 34h-9.9l-6.468-10.516h-2.728V34Zm0-24.728v7.348h4.268c3.696 0 5.412-1.144 5.412-3.652s-1.716-3.696-5.412-3.696h-4.268Z"/></svg>