<svg width="44" height="44" viewBox="0 0 44 44" fill="none" xmlns="http://www.w3.org/2000/svg">
  <path
    d="M23.8282 6.9415C24.0528 9.41224 24.1738 11.883 24.2602 14.3537C24.2947 15.1312 24.312 15.9087 24.3293 16.669C24.8822 16.1333 25.4524 15.5977 26.0225 15.0794C27.8194 13.3862 29.6509 11.7275 31.5687 10.1379C32.2598 9.56774 33.2792 9.65413 33.8494 10.3452C34.3505 10.95 34.3332 11.8311 33.8494 12.4186C32.2598 14.3192 30.6012 16.1679 28.9079 17.9648C28.3723 18.535 27.854 19.0879 27.3184 19.658C28.0959 19.658 28.8734 19.6926 29.6509 19.7271C32.1216 19.8135 34.5924 19.9345 37.0631 20.1591C37.9615 20.2455 38.6181 21.023 38.5317 21.9214C38.4626 22.7162 37.8233 23.3209 37.0631 23.3901C34.5924 23.6147 32.1216 23.7356 29.6509 23.822C28.8734 23.8566 28.0959 23.8738 27.3356 23.8911C27.8713 24.444 28.4069 25.0142 28.9252 25.5843C30.6184 27.3812 32.2771 29.2127 33.8667 31.1305C34.4369 31.8217 34.3505 32.8411 33.6593 33.4112C33.0546 33.9123 32.1734 33.895 31.586 33.4112C29.6854 31.8217 27.8367 30.163 26.0398 28.4698C25.4696 27.9341 24.9167 27.4158 24.3466 26.8802C24.3293 27.6577 24.312 28.4352 24.2775 29.1954C24.1911 31.6662 24.0701 34.1369 23.8455 36.6076C23.7591 37.5061 22.9816 38.1454 22.0832 38.0763C21.2884 38.0071 20.6837 37.3679 20.6145 36.6076C20.3899 34.1369 20.269 31.6662 20.1826 29.1954C20.148 28.4179 20.1308 27.6577 20.1135 26.8802C19.5606 27.4158 18.9904 27.9514 18.4203 28.4698C16.6234 30.163 14.7919 31.8217 12.874 33.4112C12.1829 33.9814 11.1635 33.895 10.5934 33.2039C10.0923 32.5992 10.1096 31.718 10.5934 31.1305C12.1829 29.23 13.8416 27.3812 15.5348 25.5843C16.0705 25.0142 16.5888 24.4613 17.1244 23.8911C16.3469 23.8738 15.5694 23.8566 14.8092 23.822C12.3384 23.7356 9.86769 23.6147 7.39696 23.3901C6.49851 23.3037 5.85922 22.5262 5.92834 21.6277C5.99745 20.8329 6.63673 20.2282 7.39696 20.1591C9.86769 19.9345 12.3384 19.8135 14.8092 19.7271C15.5867 19.6926 16.3642 19.6753 17.1244 19.658C16.5888 19.1051 16.0532 18.535 15.5348 17.9648C13.8416 16.1679 12.1829 14.3192 10.5934 12.4186C10.0232 11.7275 10.1096 10.7081 10.8007 10.1379C11.4054 9.63685 12.2866 9.65413 12.874 10.1379C14.7919 11.7275 16.6234 13.3862 18.4203 15.0794C18.9904 15.615 19.5433 16.1333 20.1135 16.669C20.1135 15.8914 20.148 15.1139 20.1826 14.3537C20.269 11.883 20.3899 9.41224 20.6145 6.9415C20.7009 6.04305 21.4784 5.38649 22.3769 5.47288C23.1717 5.54199 23.7764 6.18127 23.8455 6.9415H23.8282ZM37.4778 8.99757C38.1689 8.30645 38.1689 7.20067 37.4778 6.50955C36.7867 5.81844 35.6809 5.81844 34.9897 6.50955C34.2986 7.20067 34.2986 8.30645 34.9897 8.99757C35.6809 9.68869 36.7867 9.68869 37.4778 8.99757ZM6.93045 34.5688C6.23934 35.26 6.23934 36.3657 6.93045 37.0569C7.62157 37.748 8.72735 37.748 9.41847 37.0569C10.1096 36.3657 10.1096 35.26 9.41847 34.5688C8.72735 33.8777 7.62157 33.8777 6.93045 34.5688ZM34.9897 37.0569C35.6809 37.748 36.7867 37.748 37.4778 37.0569C38.1689 36.3657 38.1689 35.26 37.4778 34.5688C36.7867 33.8777 35.6809 33.8777 34.9897 34.5688C34.2986 35.26 34.2986 36.3657 34.9897 37.0569ZM9.41847 6.52683C8.72735 5.83572 7.62157 5.83572 6.93045 6.52683C6.23934 7.21795 6.23934 8.32373 6.93045 9.01485C7.62157 9.70596 8.72735 9.70596 9.41847 9.01485C10.1096 8.32373 10.1096 7.21795 9.41847 6.52683ZM42.0391 23.5456C43.0067 23.5456 43.8015 22.768 43.8015 21.8005C43.8015 20.8329 43.024 20.0554 42.0391 20.0554C41.0543 20.0554 40.2941 20.8329 40.2941 21.8005C40.2941 22.768 41.0716 23.5456 42.0391 23.5456ZM2.36909 20.0381C1.40153 20.0381 0.624023 20.8156 0.624023 21.7832C0.624023 22.7508 1.40153 23.5283 2.36909 23.5283C3.33665 23.5283 4.13143 22.7508 4.13143 21.7832C4.13143 20.8156 3.35393 20.0381 2.36909 20.0381ZM20.459 41.6182C20.459 42.5858 21.2365 43.3633 22.2041 43.3633C23.1717 43.3633 23.9492 42.5858 23.9492 41.6182C23.9492 40.6507 23.1717 39.8559 22.2041 39.8559C21.2365 39.8559 20.459 40.6334 20.459 41.6182ZM23.9492 1.94819C23.9492 0.98063 23.1717 0.203125 22.2041 0.203125C21.2365 0.203125 20.4418 0.98063 20.4418 1.94819C20.4418 2.91575 21.2193 3.71054 22.2041 3.71054C23.1889 3.71054 23.9492 2.93303 23.9492 1.94819Z"
    fill="white" />
</svg>