<svg xmlns="http://www.w3.org/2000/svg" fill="none" viewBox="0 0 66 66"><path fill="#000A46" d="M53.72 33.15a27.14 27.14 0 0 0-27.86-21.7 27.02 27.02 0 0 0-17.9 7.94 27.02 27.02 0 0 0-7.93 17.9 26.92 26.92 0 0 0 9.08 21.54l-.04.04a26.48 26.48 0 0 0 15.06 6.64c.99.11 1.99.17 3 .17v-.02a27.41 27.41 0 0 0 19.22-7.98l-8.24-8.17a15.69 15.69 0 0 1-11.03 4.58 15.4 15.4 0 0 1-11.18-4.8 15.43 15.43 0 0 1-4.28-11.47 15.62 15.62 0 0 1 14.77-14.78 15.45 15.45 0 0 1 15.16 9.72H29.02a5.8 5.8 0 0 0 0 11.6h15.36c2.63 0 5.2-1.02 7-2.94a9.35 9.35 0 0 0 2.34-8.27Z"/><path fill="#FEE600" d="M58.04 0h-4.12v11.58h11.59V7.46A7.46 7.46 0 0 0 58.04 0Z"/><path fill="#7F24FF" d="M53.95 0H42.37v11.58h11.58V0Z"/><path fill="#EA178C" d="M65.5 11.58H53.93v11.59h11.59V11.58Z"/></svg>