<svg xmlns="http://www.w3.org/2000/svg" fill="none" viewBox="0 0 586 177"><path fill="#EA178C" d="m421.311 161-5.866-10.501h-3.838V161h-3.585v-25.673h9.668c4.852 0 7.858 3.404 7.858 7.64 0 3.694-2.354 6.554-6.228 7.279L425.439 161h-4.128Zm-9.704-13.687h5.432c2.896 0 4.852-1.702 4.852-4.346 0-2.715-1.956-4.453-4.852-4.453h-5.432v8.799Zm17.209 9.016c0-3.114 2.281-4.852 5.287-5.287l4.707-.688c1.05-.145 1.34-.688 1.34-1.303 0-1.702-1.123-3.114-3.766-3.114-2.39 0-3.73 1.484-3.947 3.512l-3.259-.76c.362-3.332 3.368-5.649 7.134-5.649 5.214 0 7.242 2.969 7.242 6.373v8.726c0 1.521.144 2.426.217 2.861h-3.331c-.073-.435-.182-1.086-.182-2.354-.76 1.231-2.498 2.897-5.612 2.897-3.549 0-5.83-2.462-5.83-5.214Zm6.301 2.354c2.788 0 5.033-1.34 5.033-5.142v-.797l-5.323.797c-1.448.217-2.535 1.05-2.535 2.607 0 1.303 1.087 2.535 2.825 2.535Zm15.767-6.446c0 3.585 1.847 6.228 5.105 6.228 3.114 0 5.034-2.715 5.034-6.3s-1.883-6.047-4.997-6.047-5.142 2.534-5.142 6.119Zm10.175 6.409v-.289c-.833 1.665-2.68 3.114-5.395 3.114-5.106 0-8.256-4.056-8.256-9.234 0-4.924 3.331-9.125 8.256-9.125 3.077 0 4.743 1.521 5.322 2.933v-11.261h3.368v22.993c0 1.666.145 2.933.181 3.223h-3.295c-.073-.398-.181-1.304-.181-2.354Zm7.998-2.317c0-3.114 2.282-4.852 5.287-5.287l4.707-.688c1.05-.145 1.34-.688 1.34-1.303 0-1.702-1.122-3.114-3.766-3.114-2.39 0-3.729 1.484-3.947 3.512l-3.259-.76c.362-3.332 3.368-5.649 7.134-5.649 5.214 0 7.242 2.969 7.242 6.373v8.726c0 1.521.145 2.426.217 2.861h-3.331c-.073-.435-.181-1.086-.181-2.354-.761 1.231-2.499 2.897-5.613 2.897-3.548 0-5.83-2.462-5.83-5.214Zm6.301 2.354c2.788 0 5.033-1.34 5.033-5.142v-.797l-5.323.797c-1.448.217-2.535 1.05-2.535 2.607 0 1.303 1.087 2.535 2.825 2.535Zm23.407-15.281v3.621a10.69 10.69 0 0 0-1.484-.109c-2.861 0-4.78 1.521-4.78 5.359V161h-3.404v-17.417h3.332v3.042c1.267-2.68 3.44-3.332 5.214-3.332.471 0 .941.073 1.122.109Zm31.763-8.075-8.726 12.818L530.42 161h-4.237l-6.482-10.03-6.626 10.03h-4.164l8.763-12.855-8.691-12.818h4.273l6.482 10.066 6.59-10.066h4.2ZM561.893 161h-3.512v-19.988L549.618 161h-3.259l-8.691-19.988V161h-3.512v-25.673h4.816l9.053 20.893 9.124-20.893h4.744V161Zm22.207 0h-15.679v-25.673h3.549v22.342h12.13V161Z"/><path fill="#000A46" d="M112.725 70.276c-2.656-13.135-9.936-24.976-20.498-33.327-10.742-8.504-24.232-12.835-37.971-12.203-14.13.647-27.465 6.564-37.547 16.646C6.626 51.474.709 64.811.062 78.94c-.723 15.72 4.854 30.635 15.694 41.983a58.626 58.626 0 0 0 3.365 3.233l-.083.091a56.724 56.724 0 0 0 16.43 10.2 55.571 55.571 0 0 0 15.165 3.741c2.072.222 4.172.348 6.293.348v-.042c14.887-.104 29.614-5.952 40.335-16.764l-17.285-17.133c-6.154 6.209-14.616 9.561-23.154 9.602-8.95-.027-17.28-3.608-23.46-10.082-6.21-6.501-9.394-15.04-8.984-24.058.765-16.618 14.38-30.232 30.997-30.997 14.206-.654 26.763 7.669 31.818 20.386h-26.29c-6.717 0-12.168 5.452-12.168 12.169 0 6.716 5.444 12.168 12.168 12.168h32.214c5.528 0 10.917-2.128 14.693-6.168a19.62 19.62 0 0 0 4.915-17.341Z"/><path fill="#FEE600" d="M121.792.712h-8.649V25.02h24.308v-8.65c.007-8.65-7.009-15.658-15.659-15.658Z"/><path fill="#7F24FF" d="M113.205.712H88.897V25.02h24.308V.712Z"/><path fill="#EA178C" d="M137.451 25.02h-24.308v24.31h24.308V25.02Z"/><path fill="#000A46" d="M191.635 83.563c0 1.147-.069 2.725-.215 3.476h-23.836c.932 3.831 3.657 5.625 7.523 5.625 2.615 0 5.445-1.077 7.67-3.08l7.238 6.738c-3.657 3.657-8.997 5.771-15.485 5.771-11.034 0-18.53-7.35-18.53-18.315 0-11.076 7.35-18.746 18.03-18.746 10.436.007 17.57 7.53 17.605 18.53Zm-24.016-3.616h12.794c-.897-3.511-3.081-5.375-6.342-5.375-3.476 0-5.59 1.898-6.452 5.375Zm87.161-1.867v23.078h-11.216v-19.1c0-4.158-2.079-6.488-5.59-6.488-3.08 0-5.702 2.114-5.702 6.668v18.92h-11.215v-19.1c0-4.158-2.079-6.488-5.556-6.488-3.115 0-5.701 2.114-5.701 6.668v18.92h-11.216V66.003h10.75v4.408c2.225-3.692 5.771-5.375 10.464-5.375 4.624 0 8.567 2.114 10.715 5.876 2.364-4.047 6.307-5.876 11.146-5.876 8.031 0 13.121 4.944 13.121 13.044Zm19.509-22.53c0 3.76-2.942 6.667-6.703 6.667-3.797 0-6.703-2.9-6.703-6.668 0-3.796 2.899-6.737 6.703-6.737 3.761 0 6.703 2.934 6.703 6.737Zm-1.042 10.451h-11.216v35.155h11.216V66.001Zm34.71 10.822c-3.476-1.467-7.989-2.69-11.577-2.725-2.941 0-4.089.862-4.089 2.148 0 1.502 2.226 1.864 5.66 2.4l2.58.395c7.523 1.148 11.501 4.77 11.501 10.68 0 7.705-6.022 12.329-16.271 12.329-6.021 0-12.224-1.078-16.236-3.692l3.908-8.671c3.511 2.079 7.523 3.296 12.398 3.296 3.476 0 4.909-.786 4.909-2.295 0-1.363-1.579-1.898-5.556-2.51l-2.044-.285c-8.455-1.252-12.398-4.763-12.398-11.076 0-7.49 5.625-11.758 15.193-11.758 5.695 0 9.352.785 15.123 3.01l-3.101 8.754Zm38.275 0c-3.476-1.467-7.989-2.69-11.577-2.725-2.941 0-4.088.862-4.088 2.148 0 1.502 2.225 1.864 5.66 2.4l2.579.395c7.524 1.148 11.501 4.77 11.501 10.68 0 7.705-6.021 12.329-16.27 12.329-6.022 0-12.224-1.078-16.236-3.692l3.907-8.671c3.512 2.079 7.524 3.296 12.398 3.296 3.477 0 4.909-.786 4.909-2.295 0-1.363-1.578-1.898-5.556-2.51l-2.044-.285c-8.455-1.252-12.397-4.763-12.397-11.076 0-7.49 5.625-11.758 15.192-11.758 5.702 0 9.352.785 15.124 3.01l-3.102 8.754Zm49.376 6.74c0 10.645-8.101 18.53-19.101 18.53-10.965 0-19.066-7.885-19.066-18.53 0-10.646 8.101-18.53 19.066-18.53 11 .006 19.101 7.884 19.101 18.53Zm-26.701 0c0 4.728 3.227 8.065 7.6 8.065 4.409 0 7.635-3.33 7.635-8.066 0-4.728-3.226-8.065-7.635-8.065-4.373.007-7.6 3.337-7.6 8.066Zm58.114-17.988-1.036 11.18c-1.502-.5-3.623-.931-5.625-.931-3.977 0-6.418 1.974-6.418 6.341v18.996h-11.215V66.006h10.749v4.046c2.045-3.407 5.306-5.02 9.603-5.02 1.648.007 3.08.292 3.942.543Zm38.84 10.35h-9.853v25.227h-11.215V75.925h-6.057v-9.929h6.057v-2.725c0-9.464 5.194-14.658 13.405-14.658 5.486 0 9.102 1.648 11.863 3.727l-4.875 8.281c-1.682-.862-3.33-1.543-5.486-1.543-2.475 0-3.692 1.397-3.692 4.443v2.475h9.853v9.93Zm42.75 25.234H497.75v-3.796c-2.114 2.76-5.34 4.728-10.103 4.728-9.387 0-16.34-8.17-16.34-18.565 0-10.319 6.953-18.496 16.375-18.496 4.728 0 7.954 2.01 10.068 4.77v-3.796h10.861v35.155Zm-25.769-17.598c0 4.589 3.011 8.065 7.489 8.065 4.408 0 7.523-3.407 7.523-8.065 0-4.659-3.115-8.066-7.523-8.066-4.478.007-7.489 3.477-7.489 8.066Zm.973-21.52 8.532-12.996h12.864L494.225 62.04h-10.41ZM549.74 72.74l-8.782 6.126c-1.759-2.26-3.761-3.365-6.487-3.365-3.908 0-7.238 3.01-7.238 8.065 0 5.09 3.261 8.066 7.168 8.066 2.649 0 4.875-1.182 6.627-3.407l8.747 6.237c-3.372 4.77-8.532 7.635-15.054 7.635-11.215 0-18.961-7.774-18.961-18.53 0-10.75 7.739-18.53 18.961-18.53 6.529 0 11.654 2.899 15.019 7.703Zm18.279-17.19c0 3.76-2.941 6.667-6.703 6.667-3.796 0-6.703-2.9-6.703-6.668 0-3.796 2.9-6.737 6.703-6.737 3.762 0 6.703 2.934 6.703 6.737Zm-1.04 10.451h-11.215v35.155h11.215V66.001Zm18.33 35.154h-11.215V48.812h11.215v52.343Z"/></svg>